<?xml version="1.0" encoding="UTF-8"?>
<svg id="Layer_1" data-name="Layer 1" xmlns="http://www.w3.org/2000/svg" xmlns:xlink="http://www.w3.org/1999/xlink" viewBox="0 0 100 100">
  <defs>
    <style>
      .cls-1 {
        fill: #a55240;
      }

      .cls-2 {
        fill: #fff;
      }

      .cls-3 {
        fill: none;
      }

      .cls-4 {
        clip-path: url(#clippath-1);
      }

      .cls-5 {
        clip-path: url(#clippath);
      }
    </style>
    <clipPath id="clippath">
      <rect class="cls-3" x="9.69" y="1.1" width="80.28" height="98.14"/>
    </clipPath>
    <clipPath id="clippath-1">
      <rect class="cls-3" x="10.36" y="2.84" width="79.69" height="94.56"/>
    </clipPath>
  </defs>
  <g class="cls-5">
    <path class="cls-2" d="M89.27,57.97c.36,1.09.46,2.33.32,3.28-1.11,6.06-6.91,9.25-12.34,11.13-.3.12-.6.25-.9.36,2.04,2.19.91,7.01.12,9.5,1.86-.69,3.94.95,2.92,2.91-.44.76-.98,1.45-1.47,2.17.37.26.69.62.76,1.05,1.87-.09,8.11,2.43,4.35,4.12-2.85.13-5.75.04-8.5.98-.26,1.49-2.16,1.91-3.39,1.4-1.06.54-2.41.13-3.08-.84-2.65,1.38-4.82,4.98-8.14,4.28-1.08-.34-1.48-1.57-1.23-2.59-1.28-.34-2.46-1-3.69-1.51-1.39.55-2.72,1.44-4.11,2.1-1.47,1.5-3.94,1.97-5.94,1.42-3.09-.84-6.58-3.02-8.19-5.96-.58-.67-1.02-1.37-1.27-2.07-1.78.34-3.76.28-4.95.08-1.42-.5-3.07-.93-4.05-2.14-.77-1.35-1.09-2.92-2.18-4.11-1.18-1.76-3.7-2.32-4.42-4.39-.14-.83.02-1.37.34-1.7h0c.55-.87,2.01-1.17,3.37-.97-1.1-2.38-1.97-4.88-2.84-7.25-.74-2.48.9-4.2,3.14-2.37.37.3.6.73.83,1.14.79.87,1.52,1.78,2.14,2.79-.23-1.68.68-4.16,2.75-3.77,2.06.6,2.78,3.07,3.1,4.96,1.87-1.6,3.75.16,4.35,2.12,1.27-.1,2.57.52,3.77.9,1.66-1.35,3.45-2.47,4.91-4.02-1.69.31-3.39.54-5.13.3-1.32-.15-2.5-.93-3.36-1.91-.59-.58-.71-1.5-1.61-1.62-1.41-.34-2.88.02-4.28-.45-2.6-.23-5.54-1.97-4.17-4.95.39-.83,1.18-1.2,1.77-1.47,2-.9,4.02-1.69,6.06-2.49-2.16-1.15-4.41-2.13-6.82-2.73-2.41-.57-4.86-.87-7.11-1.74-1.58-.33-3.09-.89-4.44-1.93-4.04-2.71-6.57-9.03-4.68-13.58.15-.78.37-1.53.72-2.19.76-2.29,2.22-4.3,3.9-6.03-4.65,1.13-3.97-3.28-1.22-5.29-.57-.97-.33-2.05.3-2.86-1.67-1.12-3.25-2.38-4.77-3.66-.97-.93-.68-2.96.77-3.23,2.47-.05,4.76,1.1,6.92,2.28.01-.02.02-.04.03-.06-.64-1.5-1.24-3.02-1.74-4.58-.77-2.05-2.06-4.44-1.15-6.62.95-1.92,3.43-.15,4.11,1.07.02.04.05.08.07.11,1.8,1.23,2.8,3.54,3.95,5.33.09-.11.18-.21.28-.31.45-.4,1.01-.45,1.57-.3.69-2.75,1.01-5.76,2.54-8.18,1.84-2.42,3.68.48,3.47,2.51-.29,2.78-.24,5.58-.32,8.37.71-.27,1.45-.45,2.26-.46,2.31-.13,4.76.27,6.81,1.36.15.13.29.24.44.36.79-.16,1.57-.37,2.35-.53,2.61-.34,5.29-.43,7.9-.29,1.89.33,3.59.76,5.44,1.05.63-.75,1.49-1.43,1.99-1.92.24-.19.7-.47,1.25-.76-.14-.17-.27-.35-.38-.55-.38-.56-.43-1.24-.53-1.89-.21-.85-.54-1.63-.67-2.47-.36-1.22,1.13-1.98,2.17-1.76.94.21,1.67,1.21,1.99,2.11h.16c0-2.22-.38-4.65.53-6.68.74-.93,2.49-.96,3.09.14.71,1.77,1.18,4.09,1.57,5.82.09.27.18.54.27.81,1.04-1.84,1.68-4.14,3.42-5.46.82-.54,2.05-.27,2.26.78.04,2.38-1.28,5.08-1.37,7.7,0,.15-.02.3-.03.45,1.22-.84,3.4-1.73,4.04-.17.1.13.18.29.24.45.37-.25.74-.42,1.02-.43,1.77-.28,2.99,1.4,4.36,2.24,1.66,1.24,3.32,2.94,1.34,4.79,1.55,1.1,2.7,3.14,2.22,4.96-.07.45-.22.9-.43,1.29-.1.33-.29.64-.58.86-.03.02-.05.04-.08.06-1.53,1.73-3.91,2.5-5.94,3.44-.74.45-1.49.87-2.25,1.25,2.39.45,2.25,3.87.34,5.85,3.91-.49,4.39,1.71,3.18,3.44,3.14.94,6.19,3.97,2.58,6.19.06.15.1.29.1.43.51.39.99.81,1.38,1.32.03.05.06.11.09.16.8.82,1.53,1.76,2.18,2.79.55.69,1.08,1.41,1.46,2.22.44,1.06,1.42,2.77,1.68,4.27ZM76.12,40.08c.15-.11.31-.21.47-.29-.27.05-.54.09-.82.12.12.05.24.1.35.17ZM72.73,36.5c-.12.07-.23.15-.34.21-.04.21-.09.41-.14.62.12-.25.28-.53.49-.83Z"/>
  </g>
  <g class="cls-4">
    <path class="cls-1" d="M83.07,49.79c4.64,4.25,6.73,12.94,1.25,17.36-4.87,4.56-12.06,4.14-17.47,7.62-2.57,1.54-3.29,4.74-2.21,7.41.54,1.28,1.63,2.19,2.6,3.16.28-.02.51.07.69.27.29.26.58.54.87.83-.32-1.17-.62-2.34-.87-3.51-.05-.88-1.04-2.39.06-2.88.39-.07.61.22.73.44,1.31,2.09,1.91,4.46,2.29,6.87.05-.61.2-1.23.24-1.81.59-3.77,1.08-7.63,2.36-11.23,2.09-1.7.49,6.78.34,7.65-.45,2.23-1.04,4.64-2.18,6.61.02,0,.04,0,.06,0,.42-.94,1.67-2.38,1.95-2.63.76-.57,3.72-3.69,3.77-1.34-.73,1.67-2.53,2.7-3.65,4.11,1-.34,2.56-1.06,3.3.08-.69.32-1.43.62-2.2.83,2.06-.1,4.15-.25,6.08.44.7.41,1.43.91,2.03,1.37-1.49.3-3.01.14-4.51-.04-.6-.18-3.08-.12-4.89-.4.02.03.05.05.07.08.27.48.55,1,.69,1.5-.52-.02-1.03-.1-1.53-.25-.3-.11-.63-.23-.92-.38.42.88,1.47,2.86.06,1.86-.22-.16-.42-.33-.59-.54-.17-.2-.27-.42-.36-.65-.4.48-.77,1.43-1.53,1.16-.4-.18-.56-.61-.52-1.03.1-.37.23-.8.4-1.23-1.2.24-2.22,1.04-3.24,1.69-1.61,1.1-3,2.49-4.6,3.6-.43.34-1.01.04-1.11-.46-.11-.47.12-.9.37-1.28.28-.39.57-.79.87-1.18-.5.24-1.03.38-1.6.38-.39,0-.8-.07-1.23-.22-.61-.19-1.65-.56-2.37-1.1-.66-.18-1.5-.62-1.91-1.16-.12.05-.23.12-.32.2-.01.01-.03.03-.05.05-.02.01-.03.03-.05.05-.03.03-.06.06-.1.09,0,0-.01.01-.02.02-.05.04-.1.07-.15.11-.02.01-.04.03-.05.04-.16.11-.32.22-.49.33-.02,0-.05,0-.07.01h0s-.08,0-.11.03c-1.01.72-2.09,1.36-3.15,2-.56.29-1.27.77-1.91.5,0,0,0,0-.01,0-.91.31-1.86.46-2.83.4-1.76.08-3.06-1.14-4.38-2.12-1.69-1.35-5.21-3.58-3.98-6.09.06-.08.12-.15.19-.2.07-.16.19-.31.34-.39,1.16-.55,2.28-1.19,3.45-1.72-.39-.13-.76-.35-1.01-.7-1.17-.51-2.24-.85-3.45-.98-.1-.03-.18-.1-.23-.2-.49-.03-.98-.05-1.46-.03-1.56-.03-3.17-.55-4.59,0-.49.36-.88.86-1.18,1.4.15.31.18.7-.05.99,2.68,1.42,5.86.17,8.72.86-2.33.76-4.93,1.39-7.45,1.07-1.44.02-3.05-1.01-2.71-2.41h0c-.21-.25-.35-.53-.58-.79-.31-.33-.66-.75-.68-1.2-1.65-1.22-3.19-2.65-4.84-3.87-.51-.68.09-1.39.88-1.13,2.16.44,4.41,1.27,6.07,2.7-2.54-3.53-4.04-7.68-5.8-11.62-.16-.5-.69-1.02-.41-1.55.66-.98,2.54,2.31,2.99,2.84,1.51,2.55,3.58,4.82,4.79,7.53-.28-1.74-.54-3.48-.72-5.24.04-.86-.8-4.08.87-3.43,1.23,2.15,1.04,4.94,1.7,7.32.61-1.51,2.83-3.95,3.62-2.29.14.14.2.34.18.54.04.19.07.41.09.66-.08-.03-.16-.11-.25-.21-.07.09-.16.15-.28.19-.97.74-1.74,1.73-2.08,2.84,1.19-.99,2.45-1.82,3.01-2.03,1.61-.87,3.37.1,4.89.7.4.14.82.28,1.23.45-.23-1,.84-1.77,1.51-2.4,1.97-1.72,4.06-3.59,4.4-6.29.05-.15.06-.31.06-.49-2.07.63-4.24,1.31-6.42,1.17-.59-.08-1.22-.24-1.78-.51,0,.01.01.02.02.04t0,0c-.07-.05-.15-.09-.21-.14,0,0,0,0,0,0-.51-.28-.94-.66-1.23-1.17-.21-.32-.26-.66-.2-.96-.12-.3-.24-.6-.37-.89-.56-.16-1.25-.06-1.72-.48-2.45-.22-5.29.59-7.52-.59-1.69-2.81,3.87-2.9,5.4-3.68.5-1.07,1.9-1.27,2.89-1.72.63-.22,1.3-.44,1.97-.6-.59-.17-1.08-.64-1.63-.93-.26-.11-.53-.3-.69-.54-7.44-4.42-18.89-2.63-22.98-11.78-3.09-7.43,3.36-14.23,8.89-18.38.16-.1.32-.18.49-.26-.17-.08-.33-.17-.49-.27-2.32.78-4.54,2.05-6.98,2.24-2.37-1,2.36-3.56,3.4-3.86.34-.13.7-.19,1.07-.22-1.24-.07-2.62-.06-3.47-.81-.53-1.39,1.9-1.55,2.79-1.89.08-.01.16-.03.26-.05-2.51-1.35-4.91-2.92-7.43-4.15-.39-.59.21-1.22.83-.93,3.04,1.25,6.14,2.4,9.1,3.87-2.01-4.19-3.89-8.44-5.22-12.88-.1-4.18,4.96,4.69,7.4,9.2-.15-1.47.07-2.78,1.08-2.48.75.69.95,1.77,1.07,2.86.57-3.76,1.31-7.5,2.35-11.16.14-.51.35-1.14.81-1.46.01,0,.03,0,.05,0,.04,0,.08,0,.12,0,.05,0,.1,0,.15-.01.07.25.13.54.14.81-.11.57-.22,1.13-.34,1.7-.12,3.22-.09,6.44-.25,9.66.59-.33,1.23-.62,1.88-.78.09-.11.2-.2.34-.25.98-.34,2.01-.51,3.05-.57,2.08-.07,4.28.56,5.75,2,.12-.1.29-.18.48-.17,2.23-.43,4.53-.84,6.85-.74,2.4,0,5.04-.15,7.23.96.27-.1.55-.18.85-.24.78-.29,1.62.2,1.62.89,1.39.19,2.65,1.18,3.82,2.18.57-.25,1.36-.3,1.92-.41,2.69-.45,5.21,1.01,7.92.81,1.03,0,2.1.03,3.14.19-.44-.14-.83-.42-1.1-.83-.02-.03-.04-.05-.05-.08-2.19-.3-4.33-1.01-6.4-1.76-.64-.18-1.41-.35-1.75-.99-.25-.43-.31-.98-.69-1.34-.56-.45-1.37-.7-2.08-.64-1.35.69-2.49,1.76-3.71,2.63-.69.79-1.46-.27-.87-.93.39-.35.85-.64,1.34-.83.86-.69,1.57-1.63,2.55-2.14-.88-1.69-1.41-3.58-2.02-5.38-.09-.38.36-.81.68-.46,1.29,1.49,2.5,3.2,3.37,4.93-.51-.45-1.04-.89-1.54-1.35.24.49.4.88.68,1.25.2.23.23.52.15.79.38.04.75.15,1.09.32.08-.09.21-.1.29.07.02.04.04.07.04.11.13.07.25.16.37.25-.14-1.42-.24-2.89-.3-4.34-.02-.05-.04-.1-.05-.15-.18-.91-.75-7.04.51-6.84.46.17.52.78.69,1.18,1.15,3.72,1.72,7.74,1.67,11.56-.83-3.13-1.57-6.27-2.17-9.45.07,1.13,0,2.16.18,3.22.1.34-.09.62-.32.7.2,1.44.39,2.89.53,4.33-.01.1-.05.29-.13.4.29.38.51.81.63,1.28,1.19.59,2.58.99,3.91,1.22-.68-2.01,1.17-9.41,1.37-10.67-1.57,2.81-2.44,5.93-3.16,9.06-1.03,2.52-.65-1.02-.33-1.83.86-3.25,1.65-6.82,3.8-9.46,1.55-.45.35,2.74.26,3.48-.6,2.72-.9,5.49-1.13,8.26.67-.76,3.96-5.03,4.49-2.61-.08,1.25-.98,2.33-1.32,3.5.34-.23.69-.44.98-.59-.45-.89.66-1.6,1.2-2.19.63-.55,1.34-1.27,2.25-1,1.71.77,3.15,2.25,4.48,3.5-.04,0-.08.02-.12.03.13.15.23.36.29.64-.27.42-.82.61-1.28.75-.47.11-.92.34-1.37.55.03.02.06.05.09.07-.09,0-.19,0-.28.01-.45.2-.91.34-1.39.29-.14-.05-.24-.14-.32-.24-.93,0-1.86,0-2.79,0-.2,0-.38-.05-.54-.15.34.58.65,1.17.74,1.84-.25.09-.52.13-.79.11.6.12,1.19.29,1.74.52-1.84.34-3.73.29-5.59.44-1.91.16-3.67-.38-5.56-.25-.5-.03-1.25.22-2.01.45.31.29.63.6.85.92-.75-.13-1.5-.29-2.2-.59-.78.11-1.41-.05-1.54-.9h0c-1.32-1.12-2.38-2.8-4.19-2.48-.71.16-1.29.55-1.9.86-.38.88-1.97,1.16-2.63,1.85,3.28,3.24,8.17.1,11.85,1.99-1.93,1.07-4.44,1-6.62,1.21-4.29,0-9.11-2.47-4.68-5.55.32-.39.67-.74,1.06-1.06-3.71-1.27-7.84-1.08-11.62-.2.57.46.94,1.13.99,1.9.12.93-.56,1.4-1.12,1.26-.29.15-.66.2-1,.16-1.88.34-3.82.79-5.74.85-.65.74-1.53,1.26-2.25,1.95,1.65-.1,3.45-.14,5.02.2-1.83.49-3.74.93-5.65.88-.52-.01-.93-.57-.75-1.07-1.67.68-.22-3.5-.04-4.21-.74.83-1.4,1.74-2.01,2.67-.2.31-.61.34-.85.07-.06-.06-.1-.14-.14-.22,0,0-.01,0-.02.01-.56-.6-.3-1.43-.23-2.16.21-2.71.35-5.48.57-8.22-.55,2.54-1.08,5.09-1.51,7.64-.18.96-.38,1.81-.51,2.7,1.57.15,2.91,1.57,3.65,2.82-3.48-1.17-3.67-2.53-6.7.2,1.28.4,2.57,1.15,3.84.85.87-.49,1.72-1.17,2.78-1.06-.59,1.31-2.28,2.51-3.76,2.33-.56-.1-1.13-.2-1.7-.33-.13.14-.31.2-.54.13-3.03,1.09-5.24,3.78-7.28,6.1-6.19,6.79-3.04,15.3,5.38,17.97,4.27,1.63,9.12,1.63,13.22,3.71.52.28,1.07.53,1.58.84.1.02.19.07.26.15.1.08.2.16.3.24.35.25.73.49,1.08.75.19.07.38.23.52.4,0,0,0,0,0,0,.18.12.36.24.54.35.19.11.43.24.59.4,1.14-.08,2.26.12,3.23.88.55.5,1.87,1.38,2.41,2.26.81-.66,2.75-.51,3.54-.07,1.12.54,1.52,1.8,2.31,2.68-.35.06-.81,0-1.19-.07-1.33-.52-2.62-1.18-4.11-.86-.27.08-.56-.06-.72-.29-.27.06-.57-.11-.66-.4-1.91-2.82-4.71-3.32-7.76-2.3-.87.29-1.83.48-2.55,1.06-.08.21-.12.45-.33.59-1.52.92-3.56.8-4.96,1.89,2.39.59,5.05-.79,7.29.14.59.17,1.29-.05,1.78.43.33.38.5.82.61,1.28.33,0,.65.25.83.85,2.33,1.83,5.43.49,8.1.54,0,0,0-.02.02-.03h0c-.49-1.22-.13-2.24,1.08-2.27.12-.44.52-.76.98-.35.2.15.27.39.24.62.03.05.02.12-.03.18t0,0c-.11.35-.42.64-.79.49-.29.14-.59.26-.76.35.08.28.18.61.21.92.88,1.07-.75,4.93-1.43,5.7-1.26,1.64-2.72,3.11-4.28,4.46-.21.21-.5.4-.79.47.95.44,1.83,1.01,2.42,1.87.15-.85.39-2.15,1.39-1.4.35.37.3.94.05,1.34-.25,1.18-1.12,2.07-2.17,2.6-1.1.65-2.53.95-3.48,1.74.15.34.28.7.37,1.05,1.23-.53,2.51-1.27,3.87-1.03,2.99.98,6.41,1.58,8.84,3.58,0,0,.01,0,.02-.01.04.03.07.06.11.09.16.12.31.24.49.32.13.07.26.13.39.18.11.1.26.17.41.18h.02s.1,0,.15,0c.02.06.05.12.06.18.57-.21,1.39-.18,1.88-.43,1.96-.64,3.73-.7,5.13.14.9.03,2.15,1.81,2.37,2.5.69-.48,1.44-.87,2.26-1.13-1.31-.94-2.68-1.82-3.98-2.77-.52-.41-.51-1.26-.1-1.73.19-.21.44-.34.73-.29.91.45,1.87.93,2.79,1.48-.02-.07-.03-.15-.03-.23-2.87-1.28-4.26-4.94-3.64-8,.47-2.43,2.57-4.02,4.7-5,5.14-2.69,11.23-2.95,15.97-6.51,5.94-4.35,1.94-12.6-2.42-16.55-2.31-1.62-4.92-2.82-7.59-3.71-.29,0-.57-.21-.7-.47-.05-.08-.09-.16-.11-.25-1.65.34-3.3,1.13-4.98.87-1.29-.39-2.4-1.25-3.24-2.3-.25-.31-.42-.71-.28-1.11.04-.19.17-.33.33-.39-.01-.12,0-.24.04-.36-2.84-1.33-5.79-.02-8.61.46-1.87-1.17,2.7-3.56,5.84-4.41.14-.6.42-1.16.85-1.56-1.31-1.27-2.63-2.55-3.52-4.08-.08-1.59,1.52-.21,2.12.18.66.29,2.3,1.8,3.69,3.48,0-.02,0-.05-.01-.07-.34-.2-.39-.77-.13-1.05-.06-.56-.13-1.11-.2-1.66-.18-1.88-.4-3.88-.36-5.76.02-.27.04-.64.3-.79,1.1-.44,1.66,2.21,1.98,2.97.36,1.22.67,2.45.93,3.69.26-.28.62-.53.99-.74.69-3.04,1.57-5.65,2.28-4,0,.88-.07,1.76-.15,2.64.98-1.06,2.28-1.77,3.59-2.43,2.26-1.31,4.68-2.29,7.16-3.12.6-.29,1.74-.54,1.7-1.35-.49-1-1.76-1.52-2.01-2.65-.1-.78.9-.92,1.03-.15,4.11,3.6.92,4.72-2.62,6.18-2.96,1.48-6.01,2.98-8.93,4.45-.22,1.89-.53,3.77-.71,5.67,1.54-2.02,3.18-4.12,5.48-5.3.27-.14.58-.15.85-.02.53.21.47.9.31,1.33-.89,1.57-2.35,2.78-3.12,4.43.37.32.85.48,1.28.72,1.25-.43,2.59-.98,3.72-.33,1.09,1.27-.73,2.31-1.69,2.89,2.25-.03,4.22.98,5.68,2.66-.6-.05-1.35-.29-1.99-.44-1.23-.35-2.43-.78-3.69-.94-1.36-.03-2.18-.99-.99-2.05-.57.13-1.17.44-1.76.59.57.6.98,1.42,1.31,2.14.04.01.07.03.11.05.82.4.37.79-.34,1.09,2.84,1.32,5.97,2.32,7.91,4.9ZM79.03,17.8c.51-.12,1.19-.49,1.85-.73-1.02-.36-1.91-1.14-2.86-1.7-.9.08-1.54,1.18-2.21,1.67-.04.05-.08.08-.12.11,0,.21-.04.52-.15.93.88-.04,1.81-.02,2.68.17.12-.33.4-.57.83-.45ZM74.55,18.43c-.01-.1-.01-.19,0-.29-.06.04-.13.09-.2.15.07.03.13.08.19.14ZM74.1,39.44c-.83.12-1.69-.15-1.53-1.23.27-1.16,1.17-2.09,1.81-3.07-1.35,1-2.49,2.39-3.5,3.65-.14.19-.35.48-.59.73.74.18,1.46.54,2.12,1.01.02-.68.5-1.34,1.25-.99.14-.03.29-.06.43-.1ZM73.12,43.97c.49-.01.99-.23,1.48-.29-.7-.39-1.37-.83-1.96-1.37-.21-.05-.35-.19-.43-.36-2.23-.92-3.87-1.47-6.41,1.13-.02.02-.04.04-.06.05.81.76,1.74,1.33,2.63,2,1.57.06,3.13-1.05,4.76-1.16ZM72.69,18.31c-.28-1.06.69-2.23.95-3.24-1.25.64-2,1.82-2.91,2.79.67.1,1.35.2,1.96.45ZM71.17,89.06s0-.01.01-.02c-.38-.98-.74-2.13-1.17-3.14.09.68.86,2.06,1.12,3.17.01,0,.03-.01.04-.02ZM69.29,88.13c-.05-.14-.09-.28-.13-.42-.17-.06-.35-.12-.53-.19.23.19.44.39.65.61ZM68.11,35.74c.05-.24.09-.48.14-.72-.06.09-.13.16-.22.21.03.17.06.34.09.51ZM67.57,39.15c.03-.24.09-.67.17-1.22-.31-.91-.57-1.84-.81-2.78,0,.25-.11.49-.32.57.24,1.13.52,2.23.88,3.31.03.04.06.08.08.12ZM66.44,34.53c.18,0,.31.1.39.23-.44-1.77-.82-3.56-1.28-5.24.29,1.66.52,3.34.83,5.01.02,0,.05,0,.07,0ZM66.1,40.42c-.06-.15-.12-.3-.19-.44-1.67-.14-3.38-.44-4.97.25,1.51-.2,3.84-.79,5.15.2ZM65.03,90.67c-.43.03-.92-.1-1.34-.25-.51-.26-1.33-.57-1.6-1.1-.29-.1-.59-.19-.9-.23-1.69-.13-3.28.55-4.9.91-.15.19-.31.38-.49.56.15.05.3.14.43.25.28-.08.59.06.73.34.91.74,1.98,1.1,3.08,1.46.68.13,1.52.4,2.12-.04.71-.68,1.5-1.3,2.42-1.56.15-.12.3-.23.46-.34ZM65.11,38.36c-.18-.33-.38-.65-.59-.96-.04.02-.08.05-.12.06-.1.04-.19.07-.28.11.09.14.17.28.25.42.09.03.16.06.21.1.19.06.36.15.52.27ZM64.17,37.95c-.09-.1-.18-.19-.27-.28-.2.09-.39.2-.59.3.34-.05.63-.06.86-.03ZM63.34,36.36c.1-.05.2-.1.3-.14-.42-.52-.88-1-1.37-1.44.35.51.72,1.04,1.07,1.58ZM54.22,90.43c.13-.1.26-.2.41-.27-.55-.21-.97-.74-1.08-1.31-1.01-.42-1.96-1.01-2.92-1.56-1.87-.79-3.87-1.28-5.81-1.91-2.37.69-4.45,2.12-6.69,3.16-.06.03-.12.05-.18.06,1.11,2.48,3.73,3.84,5.83,5.39,2.37,1.09,4.48.08,6.63-.82.11-.07.22-.14.33-.21,0,0,0,0,0-.01.11-.44.41-.9.9-.94.58-.24,1.26-.7,1.96-1.06h0c.2-.17.4-.34.6-.51ZM44.58,80.65c-.13-.06-.25-.14-.36-.24-.42-.38-.85-.71-1.3-1.03-1.68-.79-3.86-1.58-5.71-1.73-2.24.53-3.81,2.12-5.2,3.81-.02.02-.04.05-.05.07,1.45-.04,3.04.37,4.44.89.53-.37,1.83.05,2.35.14.62.22,1.34.32,1.87.73.08.13.15.27.22.42.23-1.91,2.55-1.94,3.75-3.05ZM41.11,20c0-.24,0-.47,0-.7-.95-.06-1.59-.91-2.35-1.35-1.72-.84-3.7-.9-5.51-.36.09.1.16.25.21.46-.08.94-.52,1.81-.93,2.69.09,0,.19.02.29.1.37.1.75.17,1.13.2.31-.13.64-.2.98-.17.1.04.19.1.26.18,1.98-.13,4.01-.85,5.93-1.04ZM32.89,76.76c-.1.14-.2.28-.28.44-.27.5-.13,1.13-.59,1.51-.39.28-.76-.14-.87-.52.14.71.49,2.39-.63,1.94-.23-.18-.32-.47-.34-.75,0-.06-.02-.12-.03-.18-2.29-2.57-4.18-5.64-6.06-8.56,1.14,2.88,2.4,5.7,4.01,8.35.44.73.96,1.44,1.48,2.1.14.18.17.44.04.64-.13.2-.42.2-.54,0-.19-.24-.37-.48-.55-.72-1.42-.37-2.87-.68-4.26-1.18,1.15.89,2.21,1.88,3.37,2.75.3.11.41.46.36.76.06.12.12.25.18.37.04-.07.08-.13.11-.19.52-.93,1.28-1.48,2.19-1.76.02-.81,1.02-1.96,2.2-3-.12-.67-.02-1.35.22-1.99ZM32.46,22.11c-.16-.1-.29-.24-.36-.42-.14.34-.25.69-.33,1.05.22-.19.45-.41.69-.63ZM31.67,18.01s-.04-.01-.05-.02c-.24.14-.51.19-.79.19-.34.16-.66.36-.93.64-.09.28-.31.45-.56.5,0,.15-.02.3-.04.46-.07.33-.08.72-.11,1.11.66-.9,1.62-2.15,2.48-2.88ZM25.78,22.74c.06-.56.13-1.12.2-1.68-.26.54-.81.84-1.3.11-1.44-3.8-3.52-7.32-5.94-10.58,1.27,3.57,3.02,7.07,4.19,10.68.12.06.25.13.37.19.43.06.58.62.49.98-.08.28-.21.42-.37.48.09.34.18.67.25,1.01.62-.53,1.3-.97,2.1-1.15v-.04ZM23.65,23.96c-.17-.34-.33-.68-.5-1.02-.21-.02-.44-.14-.68-.26,0,.03,0,.06,0,.09-.01.13-.06.25-.13.36.1.13.19.25.26.38-.15-.06-.29-.12-.44-.19-.14.1-.32.15-.52.06-.84,0-1.66.24-2.49.36.68.21,1.37.63,1.88,1.08h.25c.37-.2.64.37.46.65-.14.27-.46.29-.72.33-1.55.2-3.01.78-4.27,1.67,1.78-.56,3.73-.98,5.58-1.01-.09-.14-.12-.32-.15-.49,0-.04,0-.07,0-.1-.1-.34.03-.76.35-.9.35-.34.71-.69,1.09-1.02Z"/>
    <path class="cls-1" d="M78.04,55.66c2.76,2.98,1.92,7.69-.95,10.29-6.27,5.64-16.77,4.25-22.13,11.21,0,0-.02-.01,0-.02,3.45-8.79,15.19-6.42,21.23-12.15,2.09-1.85,3.1-4.88,1.42-7.31-1.72-4.79-17.85-5.87-15.75-10.78.54-.61,1.37.02,1.34.71,4.14,3.99,10.85,3.91,14.85,8.05Z"/>
    <path class="cls-1" d="M39.99,64.22c-.34-1.87,2.6-1.77,3.75-1.47-.84.7-1.82,1.21-2.73,1.81-.38.23-.88.1-1.02-.34Z"/>
    <path class="cls-1" d="M28.7,41.11c.07,2.21-2.13,3.77-2.55,5.79-.17-1.74.59-3.34,1.15-4.95.65-1.96-3.31-3.24-4.32-4.64-2.11-2.67,1.93-5.3,4.21-6.02.98-.39,1.35,1.33.47,1.67-1.2.31-2.33,1.01-3.24,1.79-.34.37-.7.61-.73,1.08,1.5,1.91,4.69,2.52,5.01,5.27Z"/>
    <path class="cls-1" d="M49.46,26.56c-.64.04-1.41-.13-2.07-.31-1.26-.2-2.26-1.86-3.45-1.37-1.21.58-2.21,1.37-3.31,2.09-.08.06-.17.09-.25.09.29.07.59.1.86.1.54-.04,1.02-.38,1.56-.31.27.03.63.24.79.41,1.43.95,3.04-.04,4.53-.16.51-.02,1.14-.03,1.59.12-.52.39-1.07.76-1.65,1.06-1.28.61-2.85.78-4.22.47-.46-.08-.82-.6-1.27-.59-1.37.36-3.05.65-4.14-.51-.54-.53-.92-1.53-.25-2.12.53-.43,1.15.23,1.08.79.15.25.37.44.61.56-.11-.1-.2-.23-.26-.37-.44-1.37,1.44-1.79,2.26-2.45,1.47-1,3.33-1.47,4.81-.22,1.08.73,1.93,1.75,2.77,2.73Z"/>
    <path class="cls-1" d="M51.9,29.08c.18.91-.72,1.47-1.34,1.94-3.68,2.83-8.2-.23-12.27.17-2.05.21-7.77,1.51-7.58,4.1.39,1.1,1.56,1.57,2.59,1.86,2.51.44,6.84,2.57,5.03,5.65-1.23,1.85-5.57,3.2-3.74,5.91,2.78,2.28,6.77,2.6,10.07,3.88,3.23.9,5.93,3.14,7.92,5.72-3.73-2.59-7.97-4.15-12.25-5.54-2.67-1.16-7.01-1.6-7.35-5.18-.15-2.79,3.04-3.75,4.42-5.67.12-.18.2-.39.09-.6-1.12-2.33-4.07-2.28-6.05-3.48-5.54-4.09,3.03-7.75,6.74-8.05,4.12-.6,9.65,3.11,12.63-1.11.36-.42,1-.11,1.08.39Z"/>
    <path class="cls-1" d="M56.56,52.87c5.33,1.54,11,6.47,8.08,12.37,1.52-6.32-4.01-9.89-9.3-11.45-3.77-1.33-14.85-2.02-9.93-8.27,1.78-1.76,3.6-3.49,5.25-5.39.23-.31.44-.6.41-.98-.59-1.77-4.66-.77-3.92-3.19.26-.59,1.15-.75,1.42-.09,3.09.75,5.31,3.11,2.28,5.67-1.87,1.71-3.69,3.48-5.41,5.32-.34.53-.47,1.2-.27,1.77.24.78.89,1.18,1.57,1.52,3.12,1.42,6.62,1.56,9.82,2.72Z"/>
    <path class="cls-1" d="M75.36,24.14c2.4,1.33-5.69,2.14-6.33,1.98,2.07-.81,4.22-1.37,6.33-1.98Z"/>
    <path class="cls-1" d="M57.98,63.12c1.52,5.09-3.85,8-6.9,10.89,1.63-2.3,3.87-4.14,5.46-6.46.84-1.24.73-2.76.28-4.1-.09-.34.05-.8.4-.93.4-.15.72.24.76.61Z"/>
    <path class="cls-1" d="M55.67,82.66c.3.39.86.73.85,1.27-.3.26-.76.16-1.02-.1-1.35-1.32-.78-3.37-.43-4.99.06.02.01.25.04.34.12,1.17-.06,2.44.56,3.48Z"/>
  </g>
</svg>