<?xml version="1.0" encoding="UTF-8"?>
<svg id="Layer_1" xmlns="http://www.w3.org/2000/svg" version="1.1" xmlns:xlink="http://www.w3.org/1999/xlink" viewBox="0 0 100 100">
  <!-- Generator: Adobe Illustrator 30.4.0, SVG Export Plug-In . SVG Version: 2.1.4 Build 226)  -->
  <defs>
    <style>
      .st0 {
        fill: #fff;
      }

      .st1 {
        fill: none;
      }

      .st2 {
        clip-path: url(#clippath-1);
      }

      .st3 {
        fill: #a65341;
      }

      .st4 {
        clip-path: url(#clippath);
      }
    </style>
    <clipPath id="clippath">
      <rect class="st1" x="19.69" y=".39" width="59.38" height="99.06"/>
    </clipPath>
    <clipPath id="clippath-1">
      <rect class="st1" x="21.16" y="2.23" width="58.59" height="95.96"/>
    </clipPath>
  </defs>
  <g class="st4">
    <path class="st0" d="M78.21,12.92c.34,1.74.6,3.55.51,5.34.1,1.43-.24,2.93-.34,4.34-.34,3.56-2.15,6.87-5.2,8.81-.12.07-.23.14-.36.2-.05.26-.16.5-.33.69.15.24.26.47.34.7.18,0,.35,0,.53,0,1.64-.08,3.66,1.21,3.34,3.02h0c.14,1.48-.27,3.21-.75,4.21-1.54,2.41-3.83,4.41-5.97,6.25-1.45,1.29-3.36,1.57-5.12,2.14,1.19.79,2.42,1.55,3.5,2.5,1.8,1.91.48,4.73.17,6.93-.09.72-.02,1.43.05,2.15,1.53,1.48,2.88,4.73,2.66,5.94,0,2.76-2.13,4.67-3.58,6.75-.22.29-.39.6-.53.92-.01.1-.02.2-.04.3-.81,3.68,1.02,7.52-.59,11.09-.06.11-.12.24-.2.37v.02c-1.18,2.7-3.75,4.82-6.2,6.33-1.28.8-2.45,1.84-3.69,2.74-1.61,2.57-4.7,4.56-7.76,4.49-3.58-.23-5.08-3.88-7.43-6.02-1.49-1.45-3.76-2.1-4.96-3.82-1.32-.77-2.41-1.96-3.41-3.07-2.29-2.59-3.41-5.84-4.27-9.12-.42-2.22-1.27-4.64-.83-6.89-.65-2.75-1.36-5.51-1.64-8.32-.43-1.31-.75-2.69-.58-4.08-.03-2.24,1.66-3.76,3.6-4.55.03-.02.05-.04.09-.05,0,0,0,0,.02,0,.59-.46,1.28-.92,1.36-1.64.06-.22.04-.47-.09-.66-.23-.26-.46-.52-.69-.77-1.15-.86-2.11-2.01-2.74-3.1-.01-.03-.03-.05-.05-.09-2.1-2.35-3.21-5.59-3.82-8.57-.37-1.64-.77-3.64.31-5.1.55-.64,1.46-.9,1.93-1.66-.13-.23-.3-.46-.44-.7-2.53-2.27-4.16-5.64-4.56-8.98-.25-2.32-.53-4.73.04-7.02.08-.41.15-.82.22-1.23.16-2.83.67-5.66,2.02-8.17.82-1.38,1.75-4.89,3.87-4.08,1.04.55,1.32,1.86,1.13,2.94-.74,3.54-2.1,7-2.38,10.58.17-.71.38-1.41.64-2.11.66-1.7,1.45-3.25,2.39-4.79.27-.46.61-1.06,1.2-1.14.95-.14,1.61.69,1.84,1.52.35,1.57-.53,3.06-.97,4.52-.52,1.82-.93,3.73-1.3,5.59.09.13.18.27.25.41.32.13.67.13,1.01.16.05-.04.11-.07.16-.11,1.59-1.52,3.04-3.16,4.45-4.89,1.2-1.55,2.87-2.54,4.13-3.94.84-.75,1.25-2.38,2.57-2.3,2.25.66,1.61,3.66,1.03,5.34-1.73,3.7-4.74,6.61-7.51,9.56-1.52,1.39-2.89,2.62-3.39,4.31,1.36.81,2.94,1.22,4.32,2,.78.29,1.37.85,1.95,1.4.63.38,1.23.86,1.77,1.28.02.01.04.02.07.03.23.07.43-.06.62-.18,1.11-2.35,2.23-4.72,3.27-7.06,1.07-1.23,3.11-.17,3.41,1.23.61,3.57-1.77,6.98-1.71,10.5-.11,1.1.21,2.1.59,3.1.32-.02.65,0,.97.05,1.93-.12,3.57,1.83,5.48,1.18.9-1.12,1.18-2.39,1.2-3.73-.15-1.08-.14-2.17-.23-3.2v-.07c0-.08-.02-.15-.02-.23-.42-2.93-1.01-5.73-.38-8.61.1-.43.36-.75.51-1.16.09-.17.19-.3.31-.39.42-.71,1.2-1.08,2.07-.36,1.5,2.18,1.61,5.17,1.93,7.73,1.09-.66,2.34-1.11,3.22-2.06.45-.38.86-.85,1.3-1.28.05-.14.11-.29.18-.42.67-3.14.68-6.38.52-9.57-.12-1.25-.26-2.49-.39-3.74-.12-.5-.29-1,0-1.5.43-.71,1.36-.72,2.04-.43,1.63,1,2.05,2.8,2.74,4.42.25,1.19.47,2.38.63,3.58h.4c0-.1.02-.19.03-.28,0-3.17.19-6.48-.05-9.62-.25-2.03-.4-4.03-.27-6.02.25-.99,1.49-.96,2.18-.46,1.15.73,1.41,2.21,1.77,3.42.57,2.9.98,5.8,1.35,8.73-.04-1.8.49-3.6.6-5.35-.18-.38-.23-.81-.09-1.21.44-1.04,1.86-.89,2.59-.27,1.02,1.03,1.41,2.96,1.44,4.38h.04Z"/>
  </g>
  <g class="st2">
    <g>
      <path d="M71.69,10.05s0-.05-.01-.07c0,.04.02.08.02.12,0-.02,0-.04,0-.05Z"/>
      <path class="st3" d="M76.06,9.88c1.66,6.16,3.45,17.2-3.79,20.3-.33.18-.79.57-1.15.41-.11.06-.23.12-.35.18-1.68,1.01-3.6,1.68-5.44,2.14-1.77.76-3.5,1.57-5.02,2.71-1.12,1.17-1.52,2.78-1.86,4.35,3.76-1.82,7.54-3.66,11.43-5.17,1.09-.33,2.25-.33,3.37-.34.88-.32,1.76.11,2.12.96.73,1.63-.2,3.61-.82,5.15-.9,1.21-2.34,1.88-3.39,2.95-2.77,2.51-5.62,4.17-9.46,3.21,1.72-.62,3.69-.91,5.43-1.59,1.42-.66,2.56-1.69,3.8-2.6,1.05-.87,2.4-1.52,3.15-2.66.39-1.29.87-2.96.1-4.19-.29-.41-.84-.36-1.27-.2-2.39.63-4.81,1.23-7.05,2.26-2.35,1.19-4.7,2.5-7.14,3.47-.07,0-.13,0-.19,0,0,.02,0,.04.02.06.23.24.26.64.32.95.02.39-.42.79-.77.51-.04-.04-.08-.09-.11-.14-.07.09-.17.15-.3.17h-.04c.55.66,1.13,1.45,1.66,2.21-.2-.56-.37-1.12-.49-1.69.23.7,3.68,4.43,4.16,6.07.84.37,1.61.98,2.48,1.32,2.53.79,2.53,2.46,2.1,4.53-.15,1.54-.38,3.07-.74,4.58.07.1.13.19.2.29.38.9,3.51,4.04,2.38,4.8.61.54.54,1.45.19,2.13-.45,1.5-1.6,4.16-2.38,3.44-.23-.25-.22-.63-.05-.91.61-.98,1.3-1.92,2.04-2.77-.05-.3-.16-.58-.45-.65-.1-.02-.2-.04-.2-.03-.82-.05-1.48.41-2.25.43-.1,0-.19-.03-.27-.07-.02,0-.04.01-.05.01-.85.08-1.67-.77-2.49-.33.16.52.46,1.02.7,1.52.02-.04.04-.07.06-.11.38-.39.87.1.71.55,0,1.04.72,1.78,1.63,2.14-.16.37-.47.76-.87.9.39.09.66.7.41,1.1-.77,4.12-.04,8.39-.79,12.5-.65,2.41-2.86,3.83-4.68,5.32-2.13,1.8-4.66,3.05-6.74,4.93-.65.55-1.31,1.23-2.07,1.64.22.02.44.03.66.05-1.29.59-2.86,1.27-4.33.96-1.52-.3-2.56-1.57-3.47-2.73-.21-.32-.57-.69-.77-1.07-2.61-2.12-5.33-4.11-7.94-6.24-6.23-4.98-6.83-13.1-7.55-20.62-.41-1.69-.81-3.39-1.14-5.1-.34-2.04-.88-4.36.12-6.29,1.98-2.35,5.73-2.09,8.07-3.98.61-.66.93.32.45.75-7.87,5.98-8.44.7-7.37,10.18.15.04.28.21.31.55.93,5.89,1.14,12.03,3.45,17.56,1.36,3.13,4,5.48,6.64,7.53,1.98,1.22,3.72,2.75,5.24,4.46.18-.04.38.03.5.21.51.71,1.12,1.36,1.72,1.97,1.04,1.22,2.44,1.56,3.9,1.71,1.8-1.67,3.75-3.24,5.86-4.57,2.99-1.84,6.54-3.83,7.96-7.19.58-4-.06-8.12.67-12.12.11-.45.12-.96.42-1.34.05-.05.11-.09.16-.12-.2-.01-.38-.07-.54-.16-.96.66-2.25.91-3.42.74.05.21.02.45-.08.63-.35,2.47.18,5.09-.92,7.44-.88,1.74-2.3,3.14-3.66,4.52-1.53,1.86-3.04,3.73-4.44,5.68,0,0,0-.01,0-.02.54-2.59,1.72-4.96,3.54-6.9,1.47-1.55,3.37-3,3.71-5.25.43-2.11.05-4.3.75-6.32.05-.09.11-.16.19-.22-.05-.08-.08-.16-.1-.25-1.31-.39-2.57-.96-3.76-1.66-.95-.55-1.82-1.22-2.85-1.5-.12-.11-.19-.23-.23-.36-1.6-.15-7.09-1.31-5.51-3.37.3-.25.7-.12.89.19,1.62.84,3.23,1.61,4.83,2.42.2-.2.51-.28.85-.14,2.23.7,4.17,2.08,6,3.51.16-.15.37-.22.61-.15.11,0,.21.01.32.02-1.13-.63-2.46-1.52-1.92-2.33.19-.2.47-.16.62.05.65.8,1.45,1.55,2.08,2.36.68.08,1.36.22,2.01.43-.48-.7-.59-1.82-.32-2.6-3.14-1.44-1.61-4.8,1.64-2.91.04.01.09.02.13.03.14-.18.35-.28.62-.23.63-.11,1.32-.4,1.97-.36-.04-.06-.08-.12-.12-.18-1.55-2.1-2.95-4.44-4.25-6.66-.3-.47-.48-.85-.8-1.24-.29-.27-.25-.89.12-1.05-1.15-1.48-2.38-3.21-2.48-4.5-.26,0-.47-.12-.6-.44-.11-.72.47-.9,1.09-.83.1-.08.21-.16.34-.22-.59-.77-1.12-1.6-1.57-2.48-1.61-1.45-3.16-2.98-4.55-4.63-.12-1.48.64-1.05,1.65.04,0-.07,0-.15,0-.22,0-.17.03-.34.06-.51-.02-.05-.02-.12-.03-.19.11-3.61,1.97-7.3,5.67-8.25,2.54-.92,4.86-2.34,7.36-3.32.26-.17.52-.33.8-.48,0-.01.02-.02.03-.02.02-.01.04-.02.06-.04.17-.09.36-.2.54-.22,1.19-.62,2.61-1.16,3.21-2.41,1.7-4.23,1.46-8.9,1.05-13.33-.11,1.63-.13,3.28-.32,4.89.16.1.28.3.25.61-.17,2.02-.12,4.38-1.75,5.84-.09.1-.2.19-.32.26-.67.57-1.57.82-2.18.26-.07-.02-.14-.05-.21-.09-.3-.21-.28-.6-.18-.92.04-.17.08-.34.12-.5.04-.31.11-.64.19-.96.29-1.69.34-3.44.23-5.09-.08-1.48-.21-2.97-.44-4.44.03.35.06.7.09,1.05.13.91.2,1.84.03,2.73.25,4.82-.41,9.6-4.23,10.6-.7-.12-.86-.89-.66-1.48-.15-3.02,0-6.08-.96-8.98.5,5,1.41,11.36-3.27,14.15,0,.02-.02.03-.03.05-.67.51-1.55.71-2.27,1.19-.11.06-.24.14-.37.18-.45.35-.89.69-1.3,1.05-.55.3-1.37,1.77-1.91,1.11-.12-.32-.03-.65.19-.97-.94-2.32-.88-4.92-1.45-7.31-.63,4.93,1.87,9.98.1,14.8.04.03.07.06.11.09-.05.05-.1.11-.16.15-.06.21-.25.41-.46.39-.36.37-.81.7-1.32.74-.44.42-1.03.67-1.64.66-.84-.11-3.31-.31-4.24-1.14-1.84.3-3.64.81-5.35,1.52.16-.59.45-1.05.83-1.41-1.29-.87-2.15-2.21-2.86-3.61-2.39-2.22-4.91-3.79-7.87-5.22-1.72-.81-3.61-1.24-5.28-2.18-.56-.5-1.07-1.03-1.51-1.61h0c-3.43-2.41-3.95-6.96-3.97-10.91-.18-5.05.83-10.2,3.47-14.55.05-.13.1-.26.16-.39.12-.48.57-1.38,1.1-.75.12.16.15.4.1.6,0,.05,0,.11-.02.16-1.36,4.95-2.39,10.16-1.66,15.29.22,1.45.73,2.86,1.04,4.3-.11-2.66,0-5.32.88-7.87.3-.85.55-1.87,1.07-2.65.18-.56.39-1.12.59-1.67.36-.77.59-1.67,1.11-2.34.34-.27.76.06.79.45-.21,1.64-1.12,3.19-1.43,4.81-.69,3-.91,6.11-1.33,9.16,2.42-3.26,6.53-4.87,8.36-8.66.23-.36.38-1.04.87-1.07.24.05.32.36.24.56-.3.62-.74,1.16-.97,1.82,1.92-1.93,3.62-4.07,5.13-6.32.15-.23.46-.48.73-.3.22.24.17.58.03.86.16.91-.87,3.04-1.66,4.5,0,.02-.02.04-.03.07-1.54,3.55-5.34,5.32-7.77,8.13-1.12,1.31-2.26,2.76-2.96,4.36,2.2,2.38,5.95,2.3,8.12,4.63-.04,0-.07-.02-.11-.03,1.45.75,2.89,1.63,3.8,2.95.08-.51.23-1.01.42-1.5,0-.07,0-.13.02-.19.16-1.63,1.07-3.03,1.91-4.39.31-.8.64-1.6.99-2.39.8-1.69,1.41-.2,1.03.91-.68,3.33-1.84,6.68-1.76,10.1.53,1.27,1,2.6,1.55,3.85.65-.13,1.32-.18,1.95-.18.19-.3.64-.32.83,0,.23,0,.45,0,.66-.04.29-.09.48.14.53.4.87.21,1.76.36,2.57.75.39-.26.88-.49,1.35-.51.1-.07.23-.11.36-.14-.02-.21.07-.43.25-.54.18-.08.37-.09.55-.06.14-.38.36-.78.38-1.11.85-4.83-1.37-9.75-.12-14.52.07-.28.1-.57.22-.84.38-.51.66.14.67.52.42,2.88,1.54,5.94,1.1,8.81.48-.66,1.51-1.29,2.52-1.78.26-.52,1.25-.91,1.61-1.28.35-.22.76-.64,1.2-.54,4.85-3.2,2.73-11.26,2.31-16.21-.22-1.28.67-1.28,1.04-.03,1.25,2.51,2.06,5.24,1.94,8.07-.06.3.05,2,0,3.31.23.08.37.34.39.58,2.53-1.4,2.87-5.49,2.78-9.13-.29-1.12-.26-2.32-.33-3.45-.11-1.56-.37-3.12-.51-4.68-.05-.82-.09-1.56-.16-2.31-.1-.44-.16-.88-.12-1.32,0,0,0-.01.02-.02h0c.01-.11.04-.21.09-.3h0c-.03-.18,0-.36.17-.46.18-.1.37.02.43.2,0,.03.02.06.02.09.17.11.26.35.27.55.02.21.05.43.07.64.41,1.33.88,2.68,1.09,4.03.03.02.05.03.08.05.01.07.02.14.04.2,0,.04.02.08.02.12.05.24.1.48.15.72.02.12.05.24.09.36.01.05.03.1.04.16.02.07.13.45.15.4-.02.03.05.13.11.21.02.05.04.11.07.16.06.56.1,1.07.19,1.32.28,2.28.42,4.59.21,6.86.19.16.25.48.2.72,0,1.03-.1,2.05-.35,3.04.55-.18.98-.71,1.51-.91.56-1.12.62-2.44.78-3.7v-.28c.18-2.86.45-5.71.53-8.57-.05-.4.23-1.31.69-.71h-.02ZM66.94,53.67c-.07-.26-.17-.5-.31-.72-1.06-.88-2.48-1.42-3.55-2.29-.02-.02-.05-.04-.08-.06-.02.05-.06.11-.1.15.05.4-.26.89-.69.85.71,1.65,1.62,3.25,2.39,4.87.59.83,1.12,1.71,1.68,2.57-.05-2.09,0-4.88.65-5.36h0ZM44.06,41.66c.13-.06.26-.12.39-.17-.59-1.18-1.2-2.36-1.73-3.57-.27-2.54.46-5.14,1.07-7.6-.27.53-.55,1.08-.86,1.61-.13.41-.28.82-.46,1.2-.03.66-.1,1.33-.17,1.97.45.93-.93,1.66-1.12.49v-.2c-2.31-1.71-5.39-2.7-7.65-4.45.08.01.16.02.23.02-1.93-.57-3.85-1.38-4.68-2.77-.06.2-.12.39-.16.59-.03.17-.2.34-.38.3-.93-.6.66-3.14,1.07-3.88,2.68-4.57,7.48-7.31,10.46-11.63.14-.5.29-1,.43-1.49-1,1.31-2.1,2.55-3.28,3.71-.64.6-1.25,1.24-1.95,1.76-.14.09-.31,0-.39-.13-2.23,3.02-6.04,4.62-7.7,8.11-.23.34-.37,1.24-.95.88-.2-.16-.25-.52-.11-.75-.09-.04-.17-.1-.22-.2-2.08-1.52-2.3-4.38-2.69-6.75-.24-2.39-.14-4.79.23-7.14-.8,3.4-.98,6.93-.68,10.43.05,2.07.88,3.91,1.88,5.66.03-.04.06-.07.09-.11.05.08.09.16.14.23.04.06.07.11.11.17.12.16.25.32.41.45.08.07.16.12.25.16h0s.05.09.08.14h0c.05.07.1.15.16.21.1.11.21.19.34.27.04.02.07.05.11.07.15.2.3.4.46.6,1.47,1.27,3.5,1.49,5.26,2.19.89.07,9.18,5.11,8.71,6.46.9,1.16,1.82,2.29,3.04,3.04.09.02.17.07.22.13h.04ZM27.32,23.51s.05-.06.07-.09c-.32-1.78-.38-3.58-.21-5.36-.16.66-.28,1.34-.31,2.03-.15,1.42-.06,2.86-.09,4.29.17-.3.36-.59.55-.87h-.01Z"/>
      <path class="st3" d="M40.82,42.71s-.11,0-.17-.02c.45.23.85.55,1.14.89-.61.4-1.43.54-2.16.4-.79-.03-1.42-1.01-.8-1.57-.65-.16-1.26-.43-1.76-.92-.58-.57-1.1-1.25-1.7-1.79-1.67-1.53-3.75-2.44-5.82-3.33-.77-.27-1.51-.57-2.06-.9-.04-.02-.08-.04-.12-.06-.14-.03-.24-.12-.3-.23h0s-.01-.02-.02-.02h0c-.46-.08-.93-.12-1.39-.08,1.19,3.59.78,7.55,3.2,10.67.37.02.45.36.35.63,1.21.64,2.55,1.11,3.68,1.88,1.25-.29,3.1-1.53,4.14-.32h0c.07-.02.16-.03.25-.02,1.53.56,1.99,2.55,2.29,3.98h0c-.25-.12-.47-.28-.68-.46-.61,2.53-2.86,7.18-4.23,9.84.11.15.16.36.09.58-.1,4.11.32,8.34.02,12.41-.77-3.57-1.45-7.32-1.21-10.99-.07.09-.14.18-.22.27.05-.43.1-.85.14-1.27.03-.3.06-.6.09-.9.07-.11.2-.18.32-.19.07-.09.16-.14.25-.16.95-3.62,2.04-7.25,3.71-10.56,0-.04,0-.08.02-.12-.3-.36-.59-.71-.91-.99-.15-.08-.25-.21-.3-.37h-.09c-1.45-.34-2.61,1.39-4.02,1.21-.55-.21-.98-.67-1.44-.95-1.04-.61-1.73-1.56-2.38-2.53-.04,0-.09-.02-.14-.05-1.04-.95-1.84-2.25-2.46-3.52-.82-2.04-.7-4.31-1.35-6.39-.94-2.94.36-3.42,1.95-2.83.03-.04.05-.07.09-.11.19-.14.44-.15.62,0,.58.29,1.16.61,1.73.95,2.14.64,4.29,1.33,6.14,2.59,2.04,1.57,3.5,3.84,5.56,5.34h-.05Z"/>
      <path class="st3" d="M34.69,44.31c.7.83,1.5,1.68,2.07,2.58-1.28-.61-4.53-1.87-2.89-3.62-.87-.71-3.05-2.43-1.45-3.41.85-.03,1.65.6,2.38.98.48.51-.03,1.11-.64.85.82.6,1.63,1.88.53,2.62Z"/>
      <path class="st3" d="M49.99,52.2c.45.94,1.04,2.76-.46,1.64-.21-.16-.42-.38-.57-.61h0c-.34,1.02-1.4,1.96-2.43,1.21-.71-.63-1.36-1.61-1.54-2.61-.15,0-.3.04-.45.06-.79.09-.9-1.27-.17-1.43.63-.21,1.26-.26,1.88-.17,0-.02.02-.04.04-.07.2-.28.59-.35.82-.07.74.5,1.62.83,2.3,1.45.16,0,.31.09.42.27,0,0,.02.03.02.04.16.11.31.22.46.33-.1,0-.2-.02-.31-.04Z"/>
      <path class="st3" d="M66.3,38.3c.48-.06.73.54.57.93-.81,1.24-2.06,2.18-2.98,3.36.77.41.16,1.38-.36,1.74,0,.06.04.11.02.17-.08.03-.16.05-.24,0-.4-.19-.27-.75-.07-1.05-.33-.14-.48-.53-.38-.87-.52.48-1.59,1.18-1.57-.06.03-.21.16-.45.37-.5,1.52-1.26,2.87-2.84,4.64-3.73Z"/>
      <path class="st3" d="M46.97,70.64c2.76,0,5.46-.74,8.24-.7-2.2.94-4.63,1.93-7.12,1.81-1.18.03-2.84-.28-2.38-1.84-1.95-.05-2.78-2.1-1.18-3.33.68-.48,2.71-2.6,3.07-.96.04.33-.11.72-.44.83-.71.47-1.34,1.03-1.92,1.64,1.27.51,1.83,1.01,1.22,2.38.13.11.38.14.5.16h0Z"/>
      <path class="st3" d="M51.34,89.06s0,0,0,.02c-.71,1.15-1.96,2.52-3.43,1.76-1.82-.96-2.15-3.37-3.62-4.67-1.44-1.24-3.22-2.07-4.48-3.52-1.2-1.3-2.06-2.86-2.92-4.39-.34-.86-1.38-1.89-.84-2.82.18-.28.57-.23.71.06.72,1.87,1.93,3.56,3.07,5.16,1.58,2.22,4.22,3.07,5.88,5.16,1.48,2,2.33,5.31,5.43,3.35.06-.03.13-.07.2-.09v-.02Z"/>
      <path class="st3" d="M55.47,76.55c.25,1.04.04,2.18-.38,3.16-.76,2.11-1.46,4.21-2.08,6.32,0,.45-.43,1-.9.73-.3-.18-.4-.59-.32-.91.6-2.52,1.35-4.99,2.22-7.43.27-.77.77-1.45,1.47-1.88h-.01Z"/>
    </g>
  </g>
</svg>