<?xml version="1.0" encoding="UTF-8"?>
<svg id="Layer_1" data-name="Layer 1" xmlns="http://www.w3.org/2000/svg" xmlns:xlink="http://www.w3.org/1999/xlink" viewBox="0 0 100 100">
  <defs>
    <style>
      .cls-1 {
        fill: #fff;
      }

      .cls-2 {
        fill: none;
      }

      .cls-3 {
        clip-path: url(#clippath-1);
      }

      .cls-4 {
        fill: #a65341;
      }

      .cls-5 {
        clip-path: url(#clippath);
      }
    </style>
    <clipPath id="clippath">
      <rect class="cls-2" x="3.36" y="6.49" width="96.4" height="82.11"/>
    </clipPath>
    <clipPath id="clippath-1">
      <rect class="cls-2" x="7.35" y="17.7" width="85.12" height="66.88"/>
    </clipPath>
  </defs>
  <g class="cls-5">
    <path class="cls-1" d="M55.22,6.74c.36,0,.36.68,0,.68s-.36-.68,0-.68Z"/>
    <path class="cls-1" d="M29.4,53.05c-.67.24-1.41.04-1.92-.51-.03-.03-.05-.06-.08-.09-.38.1-.79.06-1.15-.17-.02-.01-.03-.02-.05-.03-.23,1.71-2.32,2.74-3.41,1.1-1.12.83-2.56-.06-2.87-1.28-.35.08-.71.05-1.04-.09-.22.36-.54.66-.95.81-.48.18-.98.1-1.4-.15-1.23,1.06-2.79-.16-3.15-1.47-1.69-2.21-1.79-5.34-2.55-7.96-.22-.97-.65-1.94-.44-2.96-.21-1.47-.78-3.17.1-4.52-.42-1.79-.29-5.74,2.41-5.15.24-.26.54-.45.89-.51.7-.13,1.35.29,1.69.88.45-1.46,2.62-1.89,3.3-.4,1.29-.56,2.16.82,2.45,1.9.28-.26.64-.42,1.03-.42.33,0,.65.12.91.32.25-.45.63-.81,1.18-.92.3-.06.58-.01.83.1.03-.04.06-.09.09-.13.33-.45.82-.78,1.38-.77.26-.42.64-.75,1.16-.84.21-.04.42-.03.61.01.1-2.25,2.64-3.36,3.61-.97.29.86.52,1.72.65,2.62.59-.77,1.45-1.86,2.52-1.7,1.19-.62,2.39.61,2.46,1.77,0,.57.18,1.07.43,1.57.11-1.62-.6-3.8,1.03-4.87,1.11-.59,2.23.34,2.4,1.46.17-.88.8-1.78,1.77-1.78,1.16,0,1.83,1.25,1.82,2.27-.02,2.37-.04,4.73-.03,7.11.02,3.14.14,6.27.37,9.4.26,1.8.72,5.17-1.87,5.28-2.16,1.64-3.1-1.08-3.28-2.85-.36.91-1.48,1.55-2.39.98-.21-.13-.42-.26-.62-.41-.06.06-.12.11-.19.17-.16.14-.35.24-.55.3-.36,1.03-1.45,1.71-2.52,1.31-.17.23-.39.43-.65.58-.09.05-.18.1-.28.13-.09,2.2-2.76,3.11-3.73.89Z"/>
    <path class="cls-1" d="M12,82.69s.07.02.11.03c-.04,0-.07-.02-.11-.03Z"/>
    <path class="cls-1" d="M53.95,87.19c-1.19-.07-2.37-.18-3.55-.32-1.12-.39-2.23-.77-3.35-1.14,0,0-.02,0-.03,0,0,0,0,0-.01,0-.01,0-.03,0-.04-.01-.1-.04-.19-.07-.29-.1.02,0,.04.01.06.02-.27-.09-.55-.18-.83-.27,0,0,0,0,0,0-.05-.02-.11-.03-.16-.05,0,0,0,0,0,0-.04-.01-.07-.02-.11-.03.02,0,.03,0,.05.01-.13-.04-.27-.07-.4-.11,0,0,.02,0,.02,0-.85-.23-1.68-.5-2.53-.74-.69-.19-1.38-.35-2.08-.5-1.38-.31-2.77-.5-4.16-.74.11.02.22.04.32.06-.84-.15-1.68-.29-2.52-.39.11.02.23.03.34.04-1.52-.19-3.05-.26-4.58-.31-.98-.04-1.95-.02-2.93,0-.57,0-1.15.02-1.73.02-1.18-.05-2.36-.16-3.54-.15-.56.01-1.13.02-1.7.09-.59.07-1.17.17-1.76.23-1.23.07-2.46.11-3.68.15-.6.01-1.2.01-1.79-.01-.07,0-.14-.02-.22-.02-.19-.04-.38-.09-.57-.14-.15-.06-.3-.11-.46-.18-.47-.62-.86-1.34-1.12-2.11-3.98-11.48-5.11-23.64-5.78-35.69-.24-5.72-.27-11.45-.07-17.17.08-1.88.44-3.78,1.18-5.52.31-.85.72-1.62,1.2-2.29.65-.23,1.3-.46,1.95-.71,1.15-.44,2.3-.89,3.42-1.41.63-.29,1.26-.58,1.89-.87,1.83.44,3.57,1.75,4.8,4.08.76,1.53,1.02,2.92,1.18,4.45.73,1.38,1.24,2.91,1.4,4.42.34,3.85-.7,8.02-2.48,11.43.63,9.11.79,18.23,2.44,27.24,2.97.21,5.92.6,8.86,1.11,1.5.09,2.99.03,4.49-.02,2.27-.08,4.53-.16,6.79.25,4.61.64,10.09,1.41,14.59,1.69,3.46.37,6.94.12,10.41-.02,3.61-.41,7.49-.39,10.7-2.3,1.4-1.03,2.77-2.1,4-3.32.98-1.75,2.22-3.46,4.19-4.17,2-.75,4.19-.29,5.83,1.04,7.89,7.59-.04,17.07-7.37,21.32-4.44,2.71-10.4,3.09-15.29,3.04-2.99.29-5.99.52-8.99.52-2,0-4.01-.1-6.01-.36Z"/>
    <path class="cls-1" d="M91.44,15.04s.09.03.13.04c-.04-.02-.09-.03-.13-.04Z"/>
    <path class="cls-1" d="M62.85,80.59c-1.61-.62-2.86-1.42-4.05-2.69-.04-.05-.08-.09-.12-.14-3.45,2.61-8.23,2.59-11.82.28-4.48,1.78-9.18-.63-12.14-4.05-5.53,7.39-13.6,2.95-16.23-4.5-2.98-6.65-2.38-14.06-3.96-21.02-1.9-5.22-4.19-10.46-7.62-14.86-3.09-4.44-2.17-11.38,2.44-14.42.23-.16.46-.31.7-.46.83-.33,1.66-.67,2.48-1.05,1.02-.47,2.05-.94,3.07-1.42.12-.05.24-.11.36-.16,3.91-1.18,8.09-1.59,12.14-1.93,6.78-.68,13.51.52,20.26,1.13,1.05.25,2.11.55,3.19.66.95.1,1.89.16,2.84.2,1.41.2,2.82.36,4.23.48-.03,0-.05,0-.08,0,.45.04.89.07,1.34.1-.11,0-.21-.02-.32-.02,1.22.08,2.44.14,3.66.14.24,0,.48,0,.72,0,1.12-.02,2.23-.11,3.34-.22-.12.01-.23.02-.36.04,1.73-.16,3.48-.29,5.2-.53,1.23-.17,2.46-.36,3.69-.58.44-.03.87-.06,1.3-.11.03,0,.06,0,.09.01.6.06,1.25-.07,1.84-.19.24-.02.48-.04.72-.05.37.13.78.18,1.19.13.32-.03.64-.11.96-.18.98-.02,1.94-.13,2.91-.27.59-.08,1.18-.21,1.76-.34.15-.04.3-.07.45-.11.12-.02.25-.04.38-.06.07,0,.14.02.21.02,1.34.2,2.7.36,4,.73.04.02.08.03.12.04.4.55.83,1.09,1.26,1.61,0,.01.02.02.02.03.44.63.92,1.27,1.5,1.79,1.63,7.2,1.29,14.77,1.06,22.12-.72,5.35-.68,10.67-.6,16.04-.89,6.23,1.71,16.29-3.38,20.67-3.19,2.71-8.47.79-10.04-2.81-2.25,2.18-5.84,2.84-8.69,1.65-1.66,2.64-4.61,4.79-7.69,4.79-.79,0-1.59-.14-2.37-.45Z"/>
    <path class="cls-1" d="M91.06,23.07c-.09-.01-.17-.03-.26-.06-.25.07-.52.1-.78.08-.2.12-.42.21-.47.18-1.1.32-1.94-.59-2.06-1.64-1.06-1.51-.64-4.52,1.26-5.15.57-.92,1.66-.92,2.6-.98,1.67.05,2.71,1.73,3.3,3.11,1.03,2.21-.99,5.95-3.58,4.46Z"/>
    <path class="cls-1" d="M5.16,27.17c-1.56-1.87-.73-4.68.69-6.39,1.26-1.23,2.23-1.79,3.62-2.59,7.77-2.73,16.15-3.22,24.31-3.85,4.12-.08,7.58.23,11.49.79,5.3,1.21,10.55,2.57,16.01,2.85,3.95.32,7.92.2,11.83-.46,3.6-.75,7.24-1.28,10.93-1.01.93.04,1.86.11,2.77.27,1,.16,2.29.29,2.69,1.36.44.98-.44,2.64-1.59,1.98-7.28.26-14.24,2.5-21.47,3.03-6.85.2-13.68-1.08-20.39-2.34-4.21-.77-8.4-.87-12.64-1.05-6.21.08-12.52.33-18.38,2.52-2.13.66-4.76,1.43-5.93,3.46-.32,1.77-2.64,2.99-3.93,1.41Z"/>
    <path class="cls-1" d="M55.42,83.79c.04-2.05,2.45-2.05,2.48,0-.04,2.05-2.45,2.05-2.48,0Z"/>
    <path class="cls-1" d="M59.67,88.01c-2.49-.38-4.98-.83-7.43-1.42-1.24-.27-2.49-.75-2.79-2.12-.39-1.32.53-3.52,2.19-3.17,1.81.28,3.6.67,5.42.8.46-.37,1.03-.49,1.64-.42,1.88.12,3.77.32,5.65.25,6.04.2,11.92-1.17,17.38-3.69,1.56-.5,2.86.68,3.21,2.15.35,1.42-.18,3.42-1.65,3.99-2.01,1-4.11,1.86-6.3,2.39-1.9.41-3.78.59-5.61,1.16-3.9,0-7.82.42-11.71.07Z"/>
  </g>
  <g class="cls-3">
    <path class="cls-4" d="M91.42,22.56c.41,3.41.8,6.85.68,10.29-.43,8.25-.36,16.52-.35,24.79-.04,3.83-.18,7.67-.45,11.49-.16.92-.05,2.1-.38,3.02.21,1.21-1.07,2.23-1.99,2.98-3.5,3.17-7.31,6.2-11.9,7.59-4.71,1.24-9.36,1.54-14.14,1.61-6.84-.02-13.29-2.45-19.95-3.64-8.66-1.68-17.38-1.5-26.11-.96-.52.05-1.02.14-1.52.27-.23.2-.53.32-.85.26-.28-.05-.5-.21-.66-.42-.39-.21-.56-.62-.72-1.02-1.12-2.99-1.81-6.11-2.31-9.25-1.36-8.48-1.98-17.56-2.47-26-.5-4.8-.68-9.61-.63-14.43.12-.97-.06-2.75.18-4.15,0-.46.15-.92.42-1.25.29-.49.73-.8,1.41-.8.11.03.21.06.3.1,1.59-.46,3.09-1.23,4.65-1.76,8.17-3.32,17.02-3.3,25.68-2.69,7.33.93,14.65,2.28,22.06,2.25,9.31.1,18.34-2.37,27.66-1.65.72.16,1.07.88,1.05,1.59.2.57.28,1.2.36,1.79ZM88.75,58.17c.42-11.45-.09-22.85-.59-34.23.01-.67.05-1.23.08-1.75-7.01.11-14.01,1.6-20.99,2.35-9.5.86-18.94-.55-28.34-1.73-5.99-.2-12.13-1.08-18.01.46-2.38.69-4.74,1.45-7.07,2.3-1.03.3-2.07.83-3.14,1.09-.07,6.45.6,13.02.98,19.41.21,5.9.34,11.52.95,17.31.36,3.72.95,7.44,1.76,11.1.1.86.42,1.69.67,2.53,1.92-.59,5.02-.11,6.53-.45,7.76-.06,15.54,0,23.14,1.8,4.89.77,9.65,2.23,14.57,2.89,5.13.3,10.4-.21,15.37-1.18,4.3-1.22,8.07-3.7,11.45-6.56.62-.58,1.34-1.05,1.99-1.59-.06-.37-.05-.76-.02-1.14.3-4.24.39-8.4.68-12.62Z"/>
    <path class="cls-4" d="M37.79,34.21c.8,5.98.56,12.03.58,18.05-.04,2.08-.08,4.16-.14,6.23-.03.75.03,1.5-.41,2.16-.55.84-1.69.82-2.24,0-.76-1.65-.34-3.63-.52-5.41-.28-7.03.19-14.21-.45-21.21-.35,1.75-2.12,18.25-5.07,19.57-.64.6-1.55.72-2.33-.3-4.16-5.26-6.66-11.66-9.41-17.66-.09.05-.2.07-.31.09-.03,7.79,1.04,15.39,1.24,23.14.04,1.77.39,3.51.46,5.26-.13,1.55-1.98,2.05-2.59.47-.83-3.91-1.23-7.85-1.5-11.84-.55-6.36-1.1-12.75-.51-19.13.03-1.25.96-3.26,2.5-2.43.08.05.16.11.23.17,1.21.14,2.8,1.82,3.36,2.68,3.18,4.59,5.45,9.73,8.17,14.61.83-4.84,1.02-9.8,2.05-14.61.46-2.12,1.24-4.2,2.2-6.15,2.83-2.93,4.56,4.4,4.69,6.32Z"/>
    <path class="cls-4" d="M58.14,69.8c.13,1.36.67,3.32-.91,4.03-.8.31-1.59-.29-1.87-1.05-.73-3.93-1.54-7.89-2.44-11.83-2.21.75-5.46.63-6.98.59-.58-.05-1.21-.05-1.81-.13-.18,1.46-.36,2.92-.52,4.39-.54,1.82.38,6.35-2.14,6.5-1.11,0-1.71-1.18-1.72-2.15.3-7.87,1.21-15.73,2.32-23.53.56-3.42.85-6.88,1.65-10.26.38-1.4.67-3.11,1.95-3.96,1.09-.53,1.89.17,2.23,1.14.08.09.15.18.22.26,2.75,3.5,3.56,7.98,4.53,12.22.68,2.63,1.53,5.21,2.18,7.85,1.33,5.25,2.65,10.54,3.3,15.93ZM52.06,57.34c-.85-3.43-1.78-6.82-2.81-10.12-.81-2.91-1.26-5.94-2.1-8.84-.84,6.7-1.79,13.39-2.64,20.09,2.55-.06,5.14-.3,7.55-1.13Z"/>
    <path class="cls-4" d="M71.17,58.33c1,1.24.34,2.97-.43,4.15-.93,1.6-2.87,2.33-4.67,2.09-4.25-.68-6.41-5.02-7.63-8.73-2.7-7.97-2.45-18.11,3.54-24.55,3.09-3.8,8.98-1.05,7.56,3.71-.41,1.54-2.44,2.11-2.41.07,0-.23.17-.43.14-.67-.21-.29-.55-.48-.86-.66-.97-.56-1.99-.15-2.7.62-3.97,4.18-4.48,10.64-3.93,16.13,1.16,3.9,2.11,9.94,6.78,10.9,1.13.09,2.22-.41,2.61-1.52-.35-1.15,1-2.63,2-1.55Z"/>
    <path class="cls-4" d="M77.59,34.82c0,1.88-1.63,4.2-3.71,3.71-.98-1.63.7-4.12.05-5.83-.87-1.19.13-3.67,1.78-2.84,1.44,1.11,1.81,3.23,1.89,4.96Z"/>
    <path class="cls-4" d="M84.69,53.54c4.49,6.43-2.7,17.95-10.46,13.92-1.64-.6-1.51-3.58.45-3.19,5.25,3.53,11.04-3.03,8.74-8.3-1.59-3.34-5.2-2.11-7.78-.81-2.16,1-4.43-.79-4.64-3-.94-3.89,4.24-10.22,8.14-7.37,1.59.89.3,4.1-1.35,2.57-1.96-.16-3.8,1.7-4.47,3.42-.48,1.39.33,2.81,1.86,1.91,3.08-2.02,7.25-2.71,9.53.84Z"/>
  </g>
</svg>