<?xml version="1.0" encoding="UTF-8"?>
<svg id="Layer_1" data-name="Layer 1" xmlns="http://www.w3.org/2000/svg" xmlns:xlink="http://www.w3.org/1999/xlink" viewBox="0 0 100 100">
  <defs>
    <style>
      .cls-1 {
        fill: #fff;
      }

      .cls-2 {
        fill: none;
      }

      .cls-3 {
        clip-path: url(#clippath-1);
      }

      .cls-4 {
        fill: #a65341;
      }

      .cls-5 {
        clip-path: url(#clippath);
      }
    </style>
    <clipPath id="clippath">
      <rect class="cls-2" x="12.84" y="9.05" width="72.73" height="85.57"/>
    </clipPath>
    <clipPath id="clippath-1">
      <rect class="cls-2" x="14.73" y="11.53" width="69.2" height="81.29"/>
    </clipPath>
  </defs>
  <g class="cls-5">
    <path class="cls-1" d="M84.97,12.56c.35,2.63-.29,5.12-.45,7.63-.2,2.25-.26,4.5-.38,6.76-.19,2.45-.41,4.88-.33,7.34.07,1.98.77,8.04-.18,11.57-.2,7.54-1.08,15.09-.71,22.63-.13,3.23.21,6.34.16,9.45.08,1.23.07,2.98-.32,4.41h0c.12.78-.26,1.56-.89,2.05-.38.36-.82.64-1.29.83-.43.5-1.26.81-2.45.53-2.14-.28-4.32-2.48-3.63-4.73h0c0-.44.08-.88.21-1.3,0-.12,0-.25,0-.38-.25-.98-.62-2.1-.82-3.22-.09.07-.18.13-.27.19-.84.53-1.61,1.35-2.56,1.66.87,4.02.35,10.79-2.39,13.95-.04.21-.14.43-.29.63-1.37,1.45-3.7,1.81-5.56,1.27-3.47-.93-4.58-3.57-2.06-6.33-.02-1.27.23-2.56.24-3.84,0-.83-.08-1.65.03-2.47-3.51-.23-7.03-.42-10.55-.57-1.15-.14-2.43-.14-3.66-.29-.59,1.23-1.54,2.27-2.89,2.7-.6.72-1.65.75-2.5.55-1.67-.1-3.34-.48-4.52-1.79-.83-.79-1.54-1.97-1.22-3.08-2.48-.04-5.11.03-7.61-.37.02.05.02.1.04.14.23,1.81-.09,3.62-.5,5.38,0,2.95-1,7.14-4.82,6.39-4.21-.04-9.71-4.97-4.48-8.07-.22-1.81-.39-3.62-.5-5.44-.49-.8-1.19-2.17-1.76-3.65-.48-.42-.82-1.48-.96-1.97-.98-3.79-1.2-7.84-1.36-11.7-.04-1.29-.16-2.62-.18-3.95.04-.09.08-.18.11-.27h0c-.13-1.86-.08-3.77.8-5.4.16-.62.61-1.06,1.13-1.38.79-.64,1.62-1.25,2.55-1.65,0,0,0,0,0,0,.83-.55,1.7-1.05,2.56-1.42,3.01-1.71,6.09-3.26,9.23-4.69.03-.62.08-1.23.02-1.73.04-1.02-.45-2.2.07-3.13-.1-2.95-.11-6.05.01-9.02-2.64-.25-5.55.08-7.55-1.79-.15-.18-.3-.46-.43-.79-.7-1.16-.52-2.87-.5-4.16-.16-1.53.02-3.05.19-4.57.07-.44.1-.9.15-1.37-.38-.97.3-2.08,1.14-2.59,1.98-1.13,4.09-.72,6.24-.78,4.34-.24,8.73-.7,13.02.01.72,0,1.46.05,2.16,0,4.74-.37,9.47-.05,14.21.17,3.25.25,6.51-.49,9.75-.15,0,0,0,0,0,0,2.31-.1,4.74-.36,6.97-.59.77-.45,1.8-.29,2.67-.39.94-.28,2.38-.5,3.6-.29h0c.37-.13.8-.13,1.28.09,1.15.44,1.8,1.82,2,2.97ZM22.45,86.3c.77-1.95-.42-.85-1.3-.22v.07c.41.14.87.12,1.3.15Z"/>
  </g>
  <g class="cls-3">
    <path class="cls-4" d="M83.28,12.76c.4,4.92-.49,9.97-.69,14.91-.26,3.59-.67,7.16-.91,10.75-.21,2.2.11,4.5-.21,6.68.1.14.17.3.21.46.77,1.06.25,2.9.34,4.18-.2,3.77-.34,7.55-.51,11.32-.21,1.97-.19,3.99-.59,5.93.15.11.27.27.33.43.11,1.52-.11,3.09-.01,4.62-.04.54.01,1.14.03,1.76.23-.11.41.29.68,1.17.34,2.17-.08,4.45-.48,6.59-.18,1.57-1.82,2.39-3.29,2.39-.09,0-.17,0-.25,0-2.2-.23-2.66-2.52-1.91-4.27-.05-2.21-.31-4.44-.37-6.64-1.88,1.5-3.84,2.89-5.81,4.26-.07.04-.14.08-.21.13-.01.06-.02.12-.04.18h.02s.02,0,.02,0c-.02.33-.04.65-.08.98,0,.04,0,.08-.02.12.06,2.33-.25,5.59-.72,7.36-.07.82-.19,1.63-.35,2.44-.12.43-.16,1.41-.57,1.64h0c-.13.39-.32.77-.53,1.12-.98.73-2.36,1.31-3.66,1.31-.81,0-1.6-.22-2.24-.78-1.39-1.35-.07-3.31,1.04-4.38-.21-2.5-.07-5,.06-7.5-.03-.22-.04-.43-.04-.65-.01,0-.02,0-.03,0v-.07c-5.74-.54-11.52-.85-17.29-1.26,0,0,0,0,0,0-.04,0-.08-.01-.12-.01-.03.99-.29,1.95-.76,2.86-.05,1.49-3.07,1.13-4.09.96-1.2-.3-1.73-1.02-1.83-1.88-.04-.07-.08-.16-.11-.25-.2-.77.15-1.49.52-2.18-.25-.02-.49-.04-.73-.06,0,0,0-.02,0-.03-.56-.05-1.12-.11-1.68-.16-.18-.07-.38-.09-.56-.06-2.17-.23-4.33-.5-6.49-.83-1.09-.07-2.19-.05-3.3-.04h-.04c0,.1-.01.2-.04.29,0,1.16.03,2.33.03,3.49.06,2.21-.21,4.09-.16,6.2.12,1.01-.78,1.84-1.7,1.84-.03,0-.06,0-.1,0-.29.28-.69.45-1.09.45h-.04c-.12.16-.3.26-.52.26-.01,0-.02,0-.04,0-4.58-.05-6.64-3.91-1.73-5.96-.33-1.8-.57-3.36-1-5.09-.16-.5-.43-1.55-.19-2.1-.22-.07-.45-.16-.66-.25-.74-.14-.88-1.35-.27-1.57-.12-.05-.23-.14-.34-.27-.68-.8-.61-2.34-.84-3.23-.42-2.34-1.09-4.63-1.42-6.99-.1-1.55-.97-9.11-.31-12.1h0c-.01-.38.09-.76.29-1.06.82-.8,1.93-1.3,2.89-1.93,4.22-2.4,8.45-4.82,12.94-6.69-.48-5.18-.27-10.43-.11-15.62,0-.27,0-.58.1-.84-.69-.04-1.37-.08-2.06-.13-1.89-.27-3.83-.38-5.7-.64-.16-.1-.29-.25-.36-.43-.06-.09-.11-.2-.15-.33-.18-1.09-.64-7.88.11-10.35-.05-.41.15-.85.55-.87h0c.08-.04.16-.04.25-.02.02,0,.05.01.07.02,1.43-.13,2.85-.17,4.27-.16.28-.14.67-.12.96-.15,1.55-.04,3.15-.25,4.7-.06h.01c2.2.01,4.48,0,6.57.2,4.71.25,9.5.31,14.19.5,9.03.32,18.04-.14,27.02-.85.92.02,1.26.52,1.07.91,0,0,.02.02.02.03ZM81.15,20.79c.17-2.14.36-4.28.59-6.42-1.6.65-3.36,1.01-5.04,1.42.02,2.43-.03,4.86-.12,7.28.78-.46,1.79-.79,2.33-1.16.75-.37,1.49-.76,2.24-1.11ZM80.38,76.82s-.07.05-.1.07c-1.16-.71-1-2.35-.98-3.53.02-.91.05-1.83.12-2.75.04-.18.06-.37.08-.57-.01-.1,0-.2.02-.3,0-.06,0-.12,0-.18-.54.6-1.19,1.14-1.65,1.64-.2.17-.39.34-.59.5.05.21.05.43,0,.62.05.65.11,1.3.16,1.95-.02,2.39.76,4.77.22,7.11.62.64,1.82.96,2.51.3.33-1.6.14-3.25.21-4.88ZM80.23,36.85c.2-4.5.41-8.96.72-13.41-1.27.57-2.59,1.05-3.86,1.61-.06.19-.18.36-.36.45-2.43.63-4.98.85-7.53.85-1.62,0-3.24-.09-4.84-.21-10.44-1.23-20.96-.5-31.43-.99.03.1.03.21.02.3.31,5.07.08,10.18.21,15.25,0,.22.03.44.05.65.08.04.15.09.21.15,8.2.65,16.32,2.18,24.57,2.52,4.45-.05,8.89-.17,13.34.2,1.32.18,2.67.13,4.01.08,1.58-.05,3.15-.11,4.69.21-.34-2.47.3-5.28.21-7.67ZM80.09,49.9c.08-.26.1-.75.13-1.32-1.77,1.7-3.91,3.12-5.7,4.79-1.96,1.77-4.16,3.27-5.93,5.23-.11.14-.25.31-.41.45,0,.04-.01.08-.02.11.03,2.55-.05,5.09-.19,7.64-.05,2.61-.11,5.22-.11,7.83-.03.37.01.78.02,1.19.64-.48,1.41-.89,1.87-1.37,3.23-2.47,6-5.49,8.85-8.36.19-.12.39-.17.59-.16.01-.06.02-.11.02-.17.21-5.32.18-10.58.88-15.88ZM79.7,46.83c-1.07-.24-2.17-.23-3.27-.23-.62,0-1.23,0-1.85-.04-5.93-.73-11.85-.84-17.81-.74-4.36-.28-8.76-.35-13.11-.8-3.11-.7-6.28-.7-9.43-.97-.49-.06-1.09-.24-1.53-.55-2.02,1.36-4.14,2.56-6.32,3.65-2.45,1.52-5.11,2.71-7.51,4.29,3.94.58,7.73,1.97,11.71,2.34,4.77.54,9.59,1.23,14.34,1.48,7.34.8,14.86.3,22.13,1.4.23.14.41.29.54.46,1.14-1.1,3.11-2.17,3.71-2.93,2.73-2.56,5.43-5.11,8.4-7.36ZM76.27,13.93c.27-.13.54-.25.82-.37-1.19.09-2.38.17-3.56.24.65.05,1.29.12,1.93.23.07-.07.15-.13.25-.19.21-.08.41-.03.57.08ZM74.71,17.39c.1-.44.1-.97.14-1.5-10.96-1.15-22.07-.62-33.09-1.04-5.62-.13-11.17-1.25-16.81-.91-.05,1.31-.11,2.62-.16,3.93-.03,1.54-.14,3.07,0,4.59.51,0,1.04.09,1.54.11,6.27.85,12.55.78,18.83.71.76,0,1.52-.02,2.28-.02-.69-1.07-.37-2.62-.39-3.85.17-.89-.25-4.81,1.36-4.06.23.19.32.49.29.79.1,1.39.14,2.68.21,4.05.05,1,.2,2.18-.32,3.06,1.75-.01,3.5-.01,5.25.02,5.88.16,11.74,1.25,17.62.68.99-.04,1.99-.06,2.98-.07-.23-2.14.15-4.34.27-6.48ZM67.55,84.41c.09-1.79.16-3.6.36-5.39-.44.47-1.11.67-1.76.68-.41.16-.9.18-1.32.07-.23-.05-.48-.1-.73-.15-.02.1-.03.2-.05.29.02,0,.04,0,.07,0,.04,2.41-.23,4.83.02,7.24.01.5.18.93-.06,1.38-.48.57-1.04,1.09-1.41,1.77,1.12.81,2.73.65,3.85-.05.2-.4.36-.82.5-1.25.12-.97.32-1.94.53-2.9-.11-.56-.06-1.16,0-1.68ZM66.36,59.18c-.09,0-.19-.01-.29-.03-3.82-.29-7.57-1.03-11.39-1.38-6.93-.25-13.86-.56-20.68-1.89-5.47-.91-11.36-.76-16.59-2.61.28,2.8.55,5.6.76,8.41.3,3.84,1.64,7.21,1.74,11.01,0,.48-.29.93-.67,1.12,8.26.06,16.46.29,24.68,1,5.04.55,10.05,1.45,15.08,1.82,2.24.13,4.51.39,6.73.28-.17-.49-.11-1.07-.11-1.58-.04-2.98.18-5.97.27-8.95.16-2.4.29-4.8.46-7.2ZM43.99,77.82c-.21-.02-.43-.03-.65-.05-.63-.05-1.27-.1-1.9-.14-.32-.02-.64-.05-.96-.07h-.01c-.15.45-.41.9-.55,1.32-.02.16,0,.32.04.49.81.81,2.15.67,3.19.59.29-.7.56-1.43.85-2.15ZM24.12,86.09c.05-3.18.08-6.36.07-9.54-.02-.09-.03-.18-.03-.28-1.14,0-2.27-.08-3.37-.3.02.09.02.19,0,.29.55,2.31,1.32,4.59,1.61,6.95,0,1.62-2.03,1.66-2.86,2.71.57.64,1.46.89,2.29,1,.02-.02.03-.04.05-.06.38-.31,1.01-.31,1.4-.04.12-.03.23-.05.35-.07.14-.23.31-.45.48-.67Z"/>
    <path class="cls-4" d="M72.5,16.68c.06,1.1,1.38,6.34-.36,6.34-.05,0-.12,0-.18-.02-1.72.07-1.59-1.22-1.5-2.52.07-1.19-.06-5.9,1.93-3.28.05-.17.03-.41.11-.52ZM72.21,18.33c-.09.08-.19.13-.3.14-.05.54-.08,1.08-.11,1.62-.03.49-.06.98-.1,1.47.06.02.12.03.18.04,0-.06,0-.11,0-.17.06-1.04.18-2.07.32-3.1Z"/>
    <path class="cls-4" d="M45.49,16.85c.16.55-.24,1.21-.86,1.11,0,.09-.02.17-.02.26-.04.96-.05,1.92-.01,2.88.23-1.09.49-2.26.88-3.27.11,1.28,1.3,5.32-.76,5.32-.05,0-.11,0-.17,0-.68-.09-1.36-.49-1.38-1.26-.02-1.46-.77-5.29.84-5.93.33-.06.59.12.85.27.33,0,.57.3.63.61Z"/>
    <path class="cls-4" d="M41.09,60.34c.69-.67,1.54.36,1.2,1.09-.39,1.11.29,5.29-.14,7.37.1,1.19.04,2.38-.5,3.43-.62.7-1.68.83-2.62.83-.19,0-.38,0-.55-.01-4.73-.4-9.66.13-14.2-1.48-.4-.12-.88-.27-1.08-.63-.06.02-.12.02-.18.02-.29,0-.58-.17-.78-.57-1.14-3.97-1.32-8.14-1.11-12.26v-.22c-.19-.43-.05-1.09.45-1.17.25-.04.5-.03.75-.03,4.76,0,9.46.88,14.06,2.04,1.45.39,2.86.1,4.14.65.62.41.5,1.21-.14,1.54-.63.15-1.3.21-1.96.21-1.11,0-2.23-.15-3.31-.29-2.81-.64-5.35-1.38-8.2-1.64-1.51-.33-3.11-.32-4.61-.7,0,.25.02.47.06.64.14,3.29.56,6.54,1.34,9.73.08.29.16.57.17.88,3.85,1.03,7.83,1.02,11.79,1.05.63,0,1.26.07,1.89.14,1.03.11,2.06.23,3.08.03.11-.38.2-.78.29-1.18-1.13-1.26-.35-3.38-.48-4.94.22-1.47-.15-3.23.63-4.53Z"/>
    <path class="cls-4" d="M35.52,65.91c.24-1.51,3.13-1.43,2.86.22-.08.46-.52.62-.93.64.25.56-.05,1.47-.72,1.47-.04,0-.08,0-.12,0-1.55-.52-3.05-.97-4.65-1.13-.91-.11-1.32-1.34-.33-1.69,1.29-.16,2.63.24,3.9.49Z"/>
    <path class="cls-4" d="M64.34,60.43c.25.26.29.68.15,1-.11,2-.19,4.01-.31,6-.18,1.77.13,3.78-.72,5.36.07,0,.13,0,.2.04.35.2.41.78.33,1.13-.09.62-.78.88-1.3.84-1.23.18-2.44.35-3.66.35-.5,0-.99-.03-1.5-.09-3.79-.34-7.52-1.11-11.25-1.82-.25-.02-.46-.22-.57-.44-.23-.41-.13-1.04.23-1.34-.82-2.59-.59-5.4-.59-8.09.11-.52-.07-1.89.13-2.72-.21-.41-.02-1.06.49-1.05,5.25.46,10.54.37,15.8.68.29-.39.83-.57,1.38-.26.15.11.27.22.35.34.19-.18.45-.2.83.06ZM62.97,63.79c.07-.32.06-1.04.11-1.75-.13.06-.27.1-.41.1-.25,0-.52-.11-.75-.36-1.88-.44-3.79-.4-5.71-.36-1.22.02-2.45.05-3.65-.05-.57,0-1.14.02-1.71.04-1.47.05-2.97.11-4.37-.27-.04,3.4.59,6.84.05,10.2,1.64.15,3.25.48,4.89.65,3.05.2,6.08.75,9.15.76.22.02.45.02.69.02.5,0,1.02,0,1.43.19.16.07.3.03.44-.03-1.2-2.85-.15-6.13-.15-9.13Z"/>
    <path class="cls-4" d="M53.2,67.52c.79.67.28,1.79-.62,1.79-.12,0-.25-.02-.38-.06-.43-.05-.87-.04-1.3-.02-.71.02-1.43.05-2.1-.2-.61-.28-.78-.91-.66-1.52-.66-.61-.13-2.04.95-1.72.69-.01,1.33.85.84,1.39,0,.02,0,.04,0,.05.36.03.74.03,1.12.02.74-.01,1.49-.02,2.14.27Z"/>
    <path class="cls-4" d="M53.88,48.52c.55.61,1.13,1.4.94,2.27-.26.97-1.39,1.18-2.22,1.45-2.09.58-4.23,1.19-6.42,1.19h-.02c-3.45-.09-4.36-2.51-1.52-4.62,1.54-1.4,3.62-1.79,5.64-1.61.36-.06.66.27.65.62,1.04-.7,2.25-.25,2.95.7ZM53.79,50.43c-.55-1.21-1.82-1.7-2.96-2.2-.05.08-.11.16-.2.21-1.05.23-2.16.08-3.2.38-1.32.41-2.71,1.25-3.36,2.48.89.98,2.43.89,3.62.79,2.07-.29,4.26-.61,6.09-1.66Z"/>
    <path class="cls-4" d="M38.04,46.54c1.17.51,1.66,2.04,1.02,3.14-.85,1.11-2.36,1.38-3.64,1.73-1.45.33-2.91.79-4.41.79h-.23c-4.78-.62-.14-6.91,2.95-6.22.75-.46,1.15,1,.43,1.23-.22.07-.45.05-.67.05-1.35-.05-2.61.93-3.25,2.04-.24.48-.78,1.04-.22,1.41,1.22.56,2.68,0,3.85-.29,1.41-.46,2.97-.66,4.2-1.55.12-.11.04-.3.03-.44-.96-.94-2.29-1.13-3.34-1.93,1-.27,2.29-.42,3.3.04Z"/>
    <path class="cls-4" d="M69.09,48.83c.58.62,1.27,1.47.98,2.37-.98,1.97-7.14,2.63-9.37,2.63h-.08c-3.08.01-3.53-2.07-1.34-3.98,1.27-1.2,3.02-1.66,4.7-1.95.21-.03.44.05.6.18.42.3-.03.86-.39.98-.28.09-.7.16-.96.21-1.65.46-3.29,1.39-4.2,2.88.98.54,2.15.44,3.23.38,2.3-.26,4.66-.67,6.69-1.83-1.12-1.66-3.08-2.3-4.77-3.23,1.71-.57,3.68-.04,4.89,1.35Z"/>
  </g>
</svg>