<?xml version="1.0" encoding="UTF-8"?>
<svg id="Layer_1" data-name="Layer 1" xmlns="http://www.w3.org/2000/svg" xmlns:xlink="http://www.w3.org/1999/xlink" viewBox="0 0 100 100">
  <defs>
    <style>
      .cls-1 {
        fill: #fff;
      }

      .cls-2 {
        fill: none;
      }

      .cls-3 {
        fill: #a65240;
      }

      .cls-4 {
        clip-path: url(#clippath-1);
      }

      .cls-5 {
        clip-path: url(#clippath);
      }
    </style>
    <clipPath id="clippath">
      <rect class="cls-2" x="1.66" y="12.24" width="95.02" height="76.86"/>
    </clipPath>
    <clipPath id="clippath-1">
      <rect class="cls-2" x="4.12" y="13.29" width="89.67" height="73.09"/>
    </clipPath>
  </defs>
  <g class="cls-5">
    <path class="cls-1" d="M93.35,75.82c3.08,3.07,1.98,6.23-.86,6.95-.07.05-.14.1-.23.14-1.1.5-2.35.27-3.51.25-.03.02-.07.05-.1.07-.28,1.18-1.3,2.2-2.6,1.92-1.88-.4-3.57-1.15-5.48-1.37-2.32-.37-4.75-.15-6.95-1.13-1.36.02-3.1-.68-4.41-.38-2.32-.04-4.09,1.92-6.39,1.91-2.61.27-4.93.7-7.46.78-2.19-.06-3.59-1.92-5.49-2.66-1.24-.16-2.51-.47-3.74-.14-1.02.39-1.95.98-2.93,1.5-.14.38-.38.73-.68,1.04-.85,1.19-1.9,2.77-3.59,2.43-2.85-.62-6.16-1.8-9-.67-1.75.56-3.53.93-5.26,1.55-1.22.38-2.55.85-3.84.52-.07-.03-.15-.06-.22-.09-.49.05-1.02-.1-1.43-.46-1.03-.81-1.39-2.52-.34-3.47.9-1.54,2.03-2.89,3.17-4.27h0c-.02-.36-.19-.64-.39-.91-1.97-.25-4.03.43-5.76,1.32-2.1.73-4.37.62-6.5,1.21-1.94.37-3.52,1.24-5.48,1.13-1.2-.27-1.98-1.55-1.45-2.71.95-2.18,2.23-4.15,3.91-5.84.68-.74,1.46-1.38,2.06-2.19.47-.9.99-1.84,1.27-2.83-.39-.64-.71-1.34-1.03-1.94-3.04-6.42,4.73-9.56,7.98-13.76.22-.41.5-.82.54-1.29,0-1.47.11-2.94.14-4.41-.36-.93-.44-2.1-.7-2.97-.59-2.72-1.14-5.46-1.52-8.22-.68-5.39-2.13-10.39-1.5-15.8.03-1.35.3-2.76,1.29-3.74,1.16-1.33,3.23-.89,5.01.15.21.04.41.12.6.23.55.41,1.16.69,1.74,1.04,1.19,1.08,2.71.52,4.05.05.21-.04.46-.11.75-.2.15-.08.3-.16.46-.23h0c2-.51,3.83-1.62,5.94-1.84,3.2-.12,6.11,2.27,9.33,1.74,3.28-.39,6.61-.19,9.83-.98.09,0,.18,0,.27-.02.17-.1.36-.18.55-.25,1.34-.5,2.66-1.04,3.98-1.59,3.17-1.45,6.24-2.27,9.65-2.07.65.06,1.31.14,1.96.16,1.68-.95,3.93-.65,5.69-.04,1.55.59,2.69,1.92,3.81,3.05.43.62,1.02.85,1.64,1,2.23-.44,4.69,1.58,4.82,3.77h0c.22.92.18,1.9.32,2.83.18,1.86,0,3.64-.34,5.46.03.88.15,1.8-.07,2.65,0,0-.02,0-.02,0-.1,2.02-.54,4.06-.51,6.09-.02,3.06.22,5.69.53,8.66.23,1.65,1.6,2.68,2.84,3.63,1.2,1.23,2.23,2.85,2.5,4.57.02,2.15-.51,4.21-.86,6.26-.73,2.96-1.23,6.37.84,8.92.41.6.86,1.17,1.17,1.83.67.66.98,1.59,1.19,2.49,0,.02,0,.05.01.07.23.38.48.75.78,1.14Z"/>
  </g>
  <g class="cls-4">
    <path class="cls-3" d="M89.88,72.5c1.47,2.3,2.3,5.04,3.31,7.5-2.02-2.54-3.8-5.25-5.68-7.89-1.15-1.95-2.45-3.96-2.33-6.31,0-3.51,1.75-6.84,1.82-10.32-.68-2.75-4.12-3.69-4.94-6.31-1.5-6.26-.75-12.75-.52-19.11-.05-2.8.87-5.73.16-8.46-2.17.18-3.07,2.7-4.86,3.67-.93.51-1.96,1.39-3.03,1.82-.55,1.33-3.22,1.52-4.24,2.36,3.03,4.64,1.25,10.5,1.7,15.68.19,2.6.28,5.22.14,7.82-.1.64-.43,1.14-.86,1.56.14.62-.77,1.04-1.75,1.24-.09.05-.17.1-.25.15,0,0-.01-.01-.01-.02,0-.03,0-.06.02-.09-.69.11-1.36.11-1.68,0-.38-.09-.72-.25-1.05-.44-.71.07-1.43.13-2.11.29-.16.08-.34.12-.51.12-.09.87-.2,1.74-.26,2.59,0,0,0,0,0,0-.62-2.2-.93-4.45-1.11-6.72-.97-3.37-2.19-6.62-2.96-10.04.23-4.35.15-8.73.11-13.08h0c-.33-.79-.5-1.92-1.48-1.04-2.83,1.97-5.05,4.73-7.65,6.91-1.62.51-3.19-.89-4.45-1.75-2.73-1.29-5.27-3.15-8.37-3.45-.99,3.63-.74,7.43-1.04,11.15-.34,4.15-.55,8.33-1.09,12.46-.32,2.49-1.91,4.52-2.69,6.81.14.08.28.16.41.23-.15-.04-.3-.07-.46-.11-.25.75-.4,1.54-.39,2.38-.15,1.33-.23,2.66-.28,4-.02.52-.21,1.19-.68,1.48-.39.25-.7-.41-.8-.68-.21-.58-.11-1.21-.06-1.8.19-1.93.17-3.92.48-5.83-2.01-.59-3.93-1.42-5.61-2.72-2.11.12-.95-8.62-.84-10.19.09-.44.1-.93.19-1.39-.27-.51-.29-1.34.12-1.48.21-.52.77-.85,1.27-1.08,1.72-.85,3.77-1.02,5.55-.24.5.23,1.07.45,1.58.73.43-.27,1-.16,1.28.68.05.14.07.27.09.4.06-1.29.14-2.57.31-3.81.38-4.18-.08-8.64,1.5-12.59.71-1.03,2.03-.23,3-.07,2.46.45,4.57,1.7,6.75,2.87,1.2.68,2.19,1.93,3.63,2.12,1.5-1.73,3.35-3.11,4.93-4.77,1.35-.93,2.63-3.09,4.45-2.76.57.23.92.7,1.16,1.23.23.04.45.2.53.49.15,1.18.18,2.41.27,3.59.4,4.08-.61,8.3.19,12.31.74,2.76,1.46,5.52,2.42,8.21.21.95.26,1.91.23,2.87.82-.27,1.65-.18,2.45.09.11-.05.22-.09.34-.11.55-.12,1.09.1,1.62.15.41.05.84.04,1.26.03.16-.44.34-.88.54-1.3.02-2.12.11-4.23.03-6.35-.1-4.22.14-8.68-.32-12.81-.55-1.84-2.76-3.78-1.07-5.67,1.11-1.13,2.78-1.37,4.23-1.82.11-.04.22-.07.34-.1.18-.19.37-.37.53-.5,1.27-1.24,2.68-2.31,3.88-3.61.34-.34.68-.72,1.04-1.08-.96-.89-2.09-1.57-3.07-2.45-.7-.73-1.25-1.61-2.26-1.9-1.61-.29-3.01.74-4.58.71-1.67-.14-3.42-.61-5.07-.09-5.24,1.57-10.25,4.38-15.79,4.54-2.68-.11-5.14.82-7.76.31-1.5-.36-3-.93-4.47-1.35-2.15-.35-4.45.95-6.34,1.69-2.09.88-4.13,2.46-6.45,2.47-1.09-.38-1.93-1.34-2.73-2.14-.03-.03-.05-.06-.08-.09-.59-.16-1.18-.73-1.67-.97,0,7,.93,13.95,2.14,20.82.33,4.05,2.07,8.04,1.41,12.11-1.7,4.54-7.36,6.18-9.5,10.37-.39,2.07,2.34,3.55,1.87,5.66-.67,1.94-2.23,3.39-3.42,5.01-.07,1.02-.75,1.86-1.52,2.49,2.64-.41,5.39.04,7.64-1.66,1.04-.54,2.3-.71,3.46-.68.69.18,1.26.63,1.88.95.33.01.66-.03.98.08,1.07.42,1.39,1.7,1.51,2.73-.25-.06-.56-.28-.79-.42-.38-.23-.71-.61-1.12-.77-.49-.02-.98.06-1.41-.25-.49-.25-.8-.57-1.2-.8-1.72.2-3.18.96-4.68,1.75-3.29.97-6.83,1.02-10.02,2.25-.34-.02-.56-.23-.67-.51-.02.01-.05.02-.07.02.01-.04.03-.08.04-.12-.13-.48.04-1.08.48-1.23.03-.02.07-.03.1-.04.87-1.52,2.23-2.67,3.49-3.89.21-2.18,2.36-3.5,3.24-5.34-4.74-6.62.42-9.09,5.17-13.05,1.61-1.25,3.32-2.84,2.86-5.07-1.49-8.21-2.72-16.5-3.38-24.83.05-1.88-1.44-8.01,1.01-8.4.82.09,1.4.64,1.96,1.23.12-.04.26-.03.41.02.63.3,1.14.81,1.66,1.27.8.7,1.43,1.57,2.59,1.03,3.06-1.04,5.86-2.77,9.04-3.46,2.71-.85,5.19,1.24,7.86,1.47,2.68-.13,5.37-.64,8.04-.69,4.21-.54,8.2-2.13,12.12-3.66,2.36-1.32,4.97-1.03,7.51-.7,2.69-.49,5.14-1.45,7,1.29,1.12,1.3,2.74,2.09,3.98,3.23.31-.17.65-.29,1.02-.33,3.48-.53,3.1,4,3.06,6.3-.12,7.75-1.79,15.77.14,23.36,1.47,1.68,3.55,2.96,4.4,5.09,1.07,2.93-.64,6.14-.93,9.07-.21,1.38-.41,2.76-.35,4.16.66,1.92,1.8,3.65,2.89,5.35ZM33.86,47.71c.07-1.11.11-2.22.16-3.32-.13.77-.85,1.19-1.44.57-2.21-1.09-4.53-1.79-6.95-.6-.02.04-.04.08-.05.12.01.05.01.11,0,.17,0,0,0,.01,0,.02,2.21,2.04,5.47,2.26,8.28,3.05ZM32.7,54.68c.57-1.61.86-3.34,1.03-5.12-2.93-.45-6.25-1.13-8.44-3.23-.42,2.77-.49,5.64-.09,8.4,1.75,1.3,3.52,2.69,5.36,3.89,0-.03.01-.06.02-.09.57-1.35,1.52-2.5,2.12-3.84Z"/>
    <path class="cls-3" d="M32.55,29.18c.31,3.13.31,6.29.21,9.42,0,0-.01,0-.01-.01-.39-2.32-.81-4.64-1.13-6.96.03-.89-.91-2.93.32-3.22.4,0,.6.42.62.77Z"/>
    <path class="cls-3" d="M30.86,38.22c-.32-.03-.6-.28-.89-.16-.21.48-.67,1.36-1.26.78-.09-.09-.16-.21-.2-.35,0,0,0,0,0,0,0-.02,0-.04,0-.05-.02-.08-.03-.16-.03-.25,0,0,0,0,0,0-.34-3.09-.8-6.2-1-9.28,1.56-2.3,1.32,6.11,1.12,8.82.11-.18.31-.29.59-.2.67-.8,1.47-.01,1.67.71Z"/>
    <path class="cls-3" d="M24.74,30.3c.54,2.19.86,4.44.78,6.7-.17,1.42.07,2.95-.38,4.29-.11.2-.32.46-.57.41-.66-.23-.71-1.09-.67-1.68.07-1.23.11-2.47.04-3.7-.14-2-.72-4.18-1.07-6.05,0-.7-.68-.98-1.24-1.2-.54.18-1.11-.25-1.49-.59-.95-.65-1.46-2.8.16-2.81.62.16.81.88,1.23,1.31.41.03.8.24,1.16.41,1.25.47,1.87,1.65,2.06,2.91Z"/>
    <path class="cls-3" d="M35.12,23.71c1.43-.3,2.93.07,4.33.38-1.27.49-2.79.7-4.17.96-.55.11-1.16-.33-1.58-.52-.78-.43-1.67-.51-2.55-.52-1.79.39-3.38,1.38-4.81,2.49-.57.38-1.48,1.5-1.96.43-.34-1.09,1.1-1.57,1.72-2.22,1.41-1.09,3.03-1.95,4.77-2.38,1.5.14,3.02.42,4.25,1.37Z"/>
    <path class="cls-3" d="M24.54,57.1c.7.39.49,1.79-.39,1.71-.72.57-1.4,1.2-2.06,1.84,1.41,2.31-1.96,3.5-3.51,4.28.62-1.29,1.7-2.21,2.71-3.16-.97-1.24-.44-1.96.59-2.89.68-.61,1.27-1.42,2.11-1.8.17-.08.36-.08.54.02Z"/>
    <path class="cls-3" d="M18.22,65.53c.97.63,1.1,2.15.35,3-.57.7-1.49,1.22-2.12,1.81-.48.36-.36.95-.38,1.44h0c-.64-.55-.77-1.49-.31-2.2.46-.83,1.45-1.19,1.93-1.98-1.14-.38-.74-2.62.55-2.07Z"/>
    <path class="cls-3" d="M37.24,48.89c.33-.7,1.23-.25,1.17.43-.28,2.35,0,4.83-.08,7.15-.47-2.46-1.72-5.07-1.09-7.58Z"/>
    <path class="cls-3" d="M30.43,52.59c.21-.91,1.05-.53.73.27-.25.64-.34,1.29-.64,1.89-.61.81-1.1-.34-1.08-.93-.21.5-.35,1.5-1.07,1.37-.46-.14-.54-.7-.68-1.1-1.26.1-.8-3.41-.87-4.3.12-.79,1.04-.56.94.18-.03.89.06,1.79.14,2.67.44.08.55.59.68.95.36-.8.43-1.59.79-2.36.81-.75,1.05.8,1.05,1.36Z"/>
    <path class="cls-3" d="M43.82,63.05c.11,1.79-1.94,2.89-3.18,3.84-2.26,1.59-4.5,3.34-6.87,4.73-.39.65-.49,1.52-1.05,2.1-1.53,1.51-3.98,1.57-5.54,3.09-.75.94-.62,2.31-1.19,3.38-.98,2.66-3.5,4.41-5.68,5.94.94-2.3,3.16-3.71,4.18-5.94.77-1.48.51-3.42,1.71-4.66,1.53-1.37,3.66-1.68,5.42-2.65.62-.46.79-1.25,1.14-1.89,1.07-1.11,2.83-1.67,3.98-2.69,1.99-1.6,4.32-2.93,5.96-4.89-1.22-7.88-1.29-15.93-1.2-23.89.17-.84,1.29-.75,1.33.12.14,2.24.16,4.53.27,6.79.23,5.55.5,11.09.71,16.63Z"/>
    <path class="cls-3" d="M49.16,49.48c.55.05.64.77.38,1.16-.21.29-.64.41-.77.77v-.02c.02,1.1.61,2.07.7,3.17.11,2.41-.09,4.89-.25,7.28,0,0,0,0-.01-.01-.65-2.32-.45-4.72-.66-7.07-.2-1.25-1.01-2.42-.79-3.71.15-.67.72-1.4,1.4-1.55Z"/>
    <path class="cls-3" d="M37.98,59.17c.27.07.19.36.11.56-1.22,1.3-2.2,2.9-3.23,4.28.45-1.66,1.08-3.38,2.38-4.57.19-.2.47-.36.75-.27Z"/>
    <path class="cls-3" d="M49.43,41.69c.32.26.39.73.24,1.11-.14,1.7-.3,3.4-.55,5.07,0,0,0,0-.01,0-.07-1.04-1.95-7.09.32-6.18Z"/>
    <path class="cls-3" d="M48.12,24.05c.51-.09,1.11.05,1.46.43-.87,1.4-2.83,1.21-4.28,1.31-.23,0-.48-.04-.71-.02-.67-.03-.71-1.18-.08-1.32,1.2-.15,2.42-.16,3.61-.39Z"/>
    <path class="cls-3" d="M69.29,20.29c-.88.21-1.6-.15-2.41-.25-1.09-.09-2.12.12-3.18.16-2.7,1.02-5.59,1.66-8.31,2.5-.54.23-1.04-.22-1.01-.77-.02-.34.17-.75.54-.83,2.02-.46,4.03-1.02,6.04-1.54,1.4-.43,2.77-.86,4.25-.79,1.46,0,3.67-.33,4.09,1.52Z"/>
    <path class="cls-3" d="M75.96,21.52c-.64-.02-1.41-.24-2.1-.29-.88-.15-1.75.25-2.61.14-.37-.14-.41-.8-.05-.98,1.68-.56,3.44.03,4.76,1.13Z"/>
    <path class="cls-3" d="M66.78,49.13c1.01.24.05,1.85-.67,1.11-.77-1.42-.42-3.7-1.11-5.3h0c-.22.56-.89,1.25-1.3.44-.2-.53-.08-1.14-.12-1.7-.14-4.11-.39-8.26.02-12.36.06-.27.32-.53.62-.41.65.43.36,1.5.47,2.18.07,3.45.26,6.91.07,10.37,1.89-.63,1.91,4.51,2.03,5.68Z"/>
    <path class="cls-3" d="M67.86,35.12c.25,2.24-.01,4.52-.29,6.74,0,0,0,0,0-.01-.46-1.87-.81-3.77-1.03-5.68-.5-.6-.11-2.04.81-1.79.32.12.47.44.52.75Z"/>
    <path class="cls-3" d="M56.98,41.61c.08.71.56,1.31.55,2.04-.11,1.8-.12,3.64-.27,5.44,0,0,0,0,0,0-.49-1.83-.57-3.73-.52-5.6-.21-.68-.67-1.29-.66-2.04,0-.62-.17-1.33.14-1.89.16-.26.55-.22.67.06.23.63,0,1.34.11,2Z"/>
    <path class="cls-3" d="M62.89,71.8c-2.08-2.35-4.66-4.33-6.4-6.93-1.2-.81-2.16-1.85-2.93-3.07-.52-.49-.73-1.16-.77-1.86-.21-1.55-.39-3.09-.45-4.66-.33-4.88.05-9.81-.55-14.66-.02-1.46,1.81-1.62,1.91-.1.42,4.56,0,9.16.14,13.73.14,3-.47,6.32,2,8.51,3,2.38,5.54,5.55,7.07,9.03Z"/>
    <path class="cls-3" d="M58,51.07c.35.91.33,2.08.31,3.02-.46-.86-1.13-1.82-1.02-2.83.04-.15.12-.29.27-.35.16-.06.34.02.43.16Z"/>
    <path class="cls-3" d="M47.33,75.12c.37.29.64.68.83,1.1-.25.16-.6.2-.91.2-1.64-.37-3.3-.88-4.74-1.74-.89-1.26-2.64-.95-3.93-.71-1.08.15-1.12-1.89-.05-1.81,2.02-.45,3.9-.51,4.99,1.52,1.11,1.15,2.64.62,3.8,1.45Z"/>
    <path class="cls-3" d="M39.96,82.45c1.51-1.46,3.54-3.64,5.71-2.16-1.03,1.19-2.73,1.29-3.8,2.41-.95.74-1.64,2.32-3,2.2-2.23-.89-4.58-.55-6.89-.47-.57,0-1.05-.38-1.6-.38-1.27.12-2.34,1.04-3.53,1.26-1.03-.23-1.03-2.02,0-2.25.97-.39,1.95-.8,2.98-.95,2.26.04,4.49.4,6.72.66,1.17-.07,2.57.69,3.41-.32Z"/>
    <path class="cls-3" d="M48.79,70.03c.59.48.72,1.2-.16,1.41-.59.14-1.21-.04-1.79.17-.27.57-1.06.47-1.25-.12-.59-1.73,2.13-2.14,3.2-1.46Z"/>
    <path class="cls-3" d="M52.28,71.82c1.02,1.56,1.58,3.46,2.25,5.14-1.02-.52-5.09-4.91-2.8-5.45.23,0,.41.13.54.31Z"/>
    <path class="cls-3" d="M68.37,80.3c.43.2.97.36,1.34.6-1.06.07-2.02.05-3.02.29-1.3.42-2.52,1.05-3.79,1.55-2.21.43-4.54.51-6.76.62-1.24-.22-2.55-.48-3.57-1.25-.79-.52-1.41-1.38-2.36-1.6-1.02-.07-2.38.37-3.2-.36-.34-.43-.14-1.25.42-1.36.38-.03.75-.03,1.14-.03.83.11,1.66-.07,2.48.06,1.61.37,2.28,2.24,3.84,2.69,1.23.46,2.39.08,3.56-.32,1.28-.49,2.66-.65,3.99-.29,1.99-.18,3.91-1.83,5.93-.61Z"/>
    <path class="cls-3" d="M67.07,65.23c-.32,0-.7-.18-1-.34-.84-.69-4.4-3.38-3.43-4.48.23-.24.61-.21.79.07.46.72,1.09,1.3,1.68,1.91.86.79,1.91,1.56,1.97,2.84Z"/>
    <path class="cls-3" d="M70.2,70.27c.72.89,1.13,2.02,1.52,3.06-1.86-2.22-5.06-3.93-5.19-7.08.06-.57.76-.58.82,0,.09,1.84,1.71,2.82,2.84,4.02Z"/>
    <path class="cls-3" d="M71.71,61.97c.38,1.13-.14,2.26-.38,3.36-.16,1.38.38,2.86.35,4.2-.52-1.42-1.4-2.84-1.27-4.39.07-.8.51-1.59.57-2.39.02-.71-.64-1.27-.55-2.01.02-.75.67-1.34.38-1.99-.3-.33-.85-.37-.91-.92-.29-.89.84-1.85,1.4-.84,1.2,1.05.84,2.7.09,3.89-.05.38.24.72.31,1.08Z"/>
    <path class="cls-3" d="M82.96,58.66c-.97-1.18-1.55-2.64-2.56-3.75-.81-.48-1.16-1.35-1.49-2.18-.19-.63-.89-.81-1.19-1.36-.23-.39-.27-.84-.31-1.27-.35-3.72.14-7.46.14-11.19.23-2.89-.14-5.91.35-8.73.55-.97,1.67-.06,1.33.84-.02,4.44-.29,8.87-.68,13.29-.16,1.91-.42,3.96-.06,5.84.02.27.15.49.39.63.96.54,1.06,1.74,1.49,2.64,1.87.96,2.26,3.42,2.59,5.25Z"/>
    <path class="cls-3" d="M85.98,83.13c-.59-.24-1.18-.54-1.73-.89-.29.08-.62.08-.92.07-.82-.02-1.48-.52-2.23-.76-2.06-.33-4.17.01-6.23-.38-.91-.12-1.78-.5-2.7-.47-.28-.06-.49-.27-.58-.54-.34-.98.55-1.58,1.45-1.45,2.04.12,4.02.86,6.07.71.96-.05,1.97-.03,2.87.3-.24-.59-.34-1.24-.25-1.96-3.1-3.29-3.12-4.92-2.58-9.27-1.03-1.45-2.11-2.89-3.3-4.19-.29-.31-.69-.57-.83-.98-.17-.44,0-1.11.52-1.2,1.4.18,2.35,1.63,3.3,2.58,1.04,1.28,2.45,2.67,2.21,4.45-.04,1.36-.52,2.75-.28,4.1.37,1.49,1.73,2.44,2.23,3.86.11.88.09,1.84.79,2.5,1.1.87,1.94,2.16,2.19,3.52Z"/>
    <path class="cls-3" d="M89.89,78.43c1.56.95,3.64,2.05.23,1.69-1.09-.29-1.76-1.29-2.6-1.96-.09-.02-.31,0-.3,0-1.31-.09-3.98,1.06-4.07-1,.02-1.93,3.26-1.34,4.48-1.02,1.05.45,1.25,1.75,2.26,2.3Z"/>
    <path class="cls-3" d="M67.44,77.43c-1.78-.3-3.5-1.39-5.33-1.08-.29.09-.6.24-.89.07-1.15-1.23-1.94-2.92-2.83-4.33-.16-.38-.04-.92.33-1.14.39-.23.77.06.91.43.76,1.2,1.55,2.4,2.11,3.71,2.13-.56,4.08,1.29,5.7,2.34Z"/>
    <path class="cls-3" d="M74.54,47.15c-.28-1.82-.83-3.65-.71-5.49.6-1.89.15-3.91.23-5.87-.25-1.52,1.67-1.53,1.46-.04-.2,2.06-.32,4.17-.84,6.17.2,1.74.11,3.51-.14,5.24,0,0,0,0-.01,0Z"/>
  </g>
</svg>