<?xml version="1.0" encoding="UTF-8"?>
<svg id="Layer_1" data-name="Layer 1" xmlns="http://www.w3.org/2000/svg" xmlns:xlink="http://www.w3.org/1999/xlink" viewBox="0 0 100 100">
  <defs>
    <style>
      .cls-1 {
        fill: #fff;
      }

      .cls-2 {
        fill: none;
      }

      .cls-3 {
        clip-path: url(#clippath-1);
      }

      .cls-4 {
        fill: #a65341;
      }

      .cls-5 {
        fill: #e29818;
      }

      .cls-6 {
        clip-path: url(#clippath-2);
      }

      .cls-7 {
        clip-path: url(#clippath);
      }
    </style>
    <clipPath id="clippath">
      <rect class="cls-2" x="8.31" y="8.31" width="77.26" height="86.57"/>
    </clipPath>
    <clipPath id="clippath-1">
      <rect class="cls-2" x="10.68" y="12.66" width="73.2" height="78.17"/>
    </clipPath>
    <clipPath id="clippath-2">
      <rect class="cls-2" x="10.68" y="12.66" width="73.2" height="78.17"/>
    </clipPath>
  </defs>
  <g class="cls-7">
    <path class="cls-1" d="M29.66,77.44c-1.37-1.32-1.72-3.29-2.02-5.09.18-3.13,3.36-7.83,6.76-5.25,2.69,2.22,4.2,9.38-.16,10.51-1.27,1.22-3.35,1.1-4.58-.17Z"/>
    <path class="cls-1" d="M10.82,79.08c-1.45-.85-1.45-2.57-1.61-4.03-.66-3.43-.61-6.71,2.9-8.47,3.25-2.32,6.23-4.13,9.2-6.69,2.44-2.48,5.11-.98,4.68,2.35.03.05.06.11.09.16.12.22.21.47.28.73.29.19.53.45.76.74.03.05.07.09.1.14.46.13.87.41,1.19.77,1.16-.24,2.27.63,2.72,1.65,1.79.37,1.79,4.1-.32,3.52-.97,1.55-3.01,4.78-5.02,2.85-.97.31-2.04-.41-2.44-1.27-.09-.2-.18-.4-.25-.59-.47-.25-.86-.71-1.1-1.21-.53-.19-.99-.64-1.26-1.14-.12-.23-.22-.46-.28-.69-.1-.06-.2-.13-.29-.2-1.47,1.09-3.03,2.06-4.55,3.09-.67.47-1.35.95-1.98,1.49.11.98.23,1.97.35,2.95.19.67.26,1.34.08,2.04-.27,1.42-1.85,2.66-3.24,1.81Z"/>
    <path class="cls-1" d="M23.09,86.5c-1.47-.57-2.5-2.08-2.79-3.6-4.11-.31-9.2-1.27-10.74-5.64-.57-1.93,1.8-3.78,2.92-1.57,3.04,1.15,10.81.3,11.87,3.8.86-1.22,2.77-.91,3.33.43,1.35,2.96-.88,7.79-4.58,6.58Z"/>
    <path class="cls-1" d="M64.62,91.1c-.58-.18-.99-.57-1.36-1.01-7.28.21-14.26-2.26-21.42-3.18-2.67-.36-5.34-.78-7.9-1.67-3.22-.61-7.2-.62-9.44-3.38-.38-.7-.02-1.72.78-1.84,3.41-.74,7.01-.8,10.45-.21,4.23.92,8.35,2.46,12.69,2.87,3.09.25,6.06,1.21,9.11,1.69,1.82.24,3.51.35,5.29.54.95.08,1.98.08,2.75.73.37.38.85.56,1.29.84.89.57,1.28,1.65,1.16,2.69-.13,1.74-1.87,2.65-3.41,1.94Z"/>
    <path class="cls-1" d="M67.29,92.49c-.41-.03-.83-.06-1.24-.11-.46-.1-.93-.16-1.4-.23-.46-.08-.92-.18-1.37-.29-.07-.03-.15-.05-.22-.09-.36-.18-.71-.36-1.09-.52-.51-.22-1.09-.27-1.63-.17-.25.04-.48.13-.7.26-.85-.65-1.67-1.35-2.5-1.96-1.27-.75-1.21-3.07.21-3.65.38-.14.74-.09,1.06.09,1.25.27,2.55.22,3.8.49,1.11.25,1.96,1.07,3.04,1.38.08-.05.16-.11.25-.16-.03-3.78,3.77-3.13,4.11.2.29,1.33-.57,3.36-1.81,4.71-.11.02-.21.04-.32.05h-.18Z"/>
    <path class="cls-1" d="M19.58,63.06c.35-2.99.77-6.06,1.88-8.88,1.37-2.92,3.19-5.54,4.57-8.45,3.41-6.53,6.5-13.33,7.15-20.64.33-4.1-.62-8.25.15-12.31.24-1,.77-2.45,1.97-2.52.74,0,1.27.77,1.3,1.45.46,5.57.8,11.22.48,16.8-.81,5.79-2.78,11.39-5.19,16.7-1.32,2.43-2.51,4.94-3.85,7.36-1.87,2.93-3.08,6.11-3.51,9.57-.22,1.16-.05,2.33-.75,3.33-1.88,2.48-4.56.1-4.2-2.42Z"/>
    <path class="cls-1" d="M22.76,65.43c-2.65-3.57-2.41-8.19-1.41-12.34.57-4.57,3.49-8.22,5.66-12.1,1.65-4.5,3.68-9.04,4.22-13.83.5-3.08.45-6.1,1.21-9.13.43-2.25.74-4.78,2.25-6.59,1.06-.77,1.93.92,1.29,1.78-.15,3.46-.06,7.43-.39,10.77-.4,5.19-1.46,10.37-3.34,15.24-2.06,4.71-4.97,9.74-6.54,14.54-.57,1.94-1.03,3.17-1.42,4.98-.15,2.31-.57,4.62-1.54,6.7,0,0,0,0,0,0Z"/>
    <path class="cls-1" d="M25.03,65.59c-6.76-2.75,3.43-18.7,5.23-23.2,1.39-3.58,2.32-7.34,3.06-11.11.49-3.92,1.62-7.77.92-11.74.05-2.35-.06-4.71-.09-7.06-.06-.76-.15-1.56.4-2.18,1.97-1.75,2.87,3.11,3.42,4.31.55,2.94.96,6.01.87,9.01-.72,5.59-1.68,11.18-3.13,16.64-1.66,6.71-6,12.35-8.03,18.94-.72,2.1-.35,5.32-2.65,6.39Z"/>
    <path class="cls-1" d="M61.89,72.98c-4.91-2.07.54-8.56,2.52-11.08,2.51-3.59,5.04-7.2,7.01-11.12,1.96-5.88,4.42-11.6,5.84-17.65.38-3.39.54-6.8.57-10.21.3-3.12-.34-6.97,1.88-9.47,1.99-1.7,4.61,2.36,2.33,3.47.19,7.29.53,14.77-1.36,21.88-.78,3.33-2.04,6.52-3.38,9.66-1.44,3.45-2.43,7.09-4.41,10.3-2.25,3.97-5.22,7.45-7.68,11.28-.67,1.36-1.48,3.2-3.31,2.95Z"/>
    <path class="cls-1" d="M63.66,76.37c-2.46-3.7-.64-7.94,1.49-11.3,2.56-4.5,6.05-8.42,8.08-13.24,5.95-10.76,6.53-23.46,6.85-35.5-.08-.8-.29-1.76.31-2.38.45-.46,1.12-.4,1.5.13,3.43,6.56,2.29,14.24,1.61,21.32-1.34,10.13-5.36,19.94-11.1,28.36-1.59,2.18-3.33,5.13-4.38,7.35-.95,2.27-2.19,4.17-4.35,5.27,0,0,0,0,0,0Z"/>
    <path class="cls-1" d="M45.57,83.57c-.91-.16-1.8-.35-2.68-.6-.31-.09-.62-.18-.93-.29-3.34,1.49-6.68-.57-9.7-1.95-1.3.19-2.61.04-3.87-.32-1.58.1-3.17-.33-4.55-1.1-1.61.28-3.3-.03-4.77-.73-2.87.69-6.06-1.61-6.1-4.61.08-2.8.91-6.33,4.35-6.28,1.49-.84,3.13-1.89,4.92-1.43,2.49.58,2.75,3.17,3.12,5.25.1.04.19.08.29.12.04.02.07.04.11.05.71-.12,1.45-.08,2.17.07.02-.02.04-.03.06-.05.11-.09.24-.18.38-.25-1.24-1.58-.38-4.89,1.94-4.6.77.2,1.86.55,2.5.7,3.66.99,7.29,2.22,10.72,3.83,1.53.54,2.88,1.89,2.84,3.6,1.21.93,2.12,2.27,2.09,3.85,1.31,2.1-.17,5.34-2.87,4.72Z"/>
    <path class="cls-1" d="M64.42,89.36c-.38-.55-.58-1.21-.61-1.88-1.85,1.57-4.19-.2-4.03-2.38-1.37.9-3.37,2.62-4.65.67-.95.5-1.99.16-2.59-.71-.57.02-1.12-.23-1.54-.67-.07-.07-.13-.15-.19-.23-.48-.15-.92-.48-1.21-.89-.46-.66-.64-1.54-.52-2.36-.07-.13-.13-.27-.18-.41-.58-.14-1.05-.61-1.36-1.19-.72-.12-1.36-.66-1.71-1.32-.14-.28-.25-.58-.31-.89-.23-.16-.44-.38-.61-.62-.14-.21-.27-.43-.37-.66-2.27,1.43-4.95,1.51-5.71-1.53-2.08,1.4-4.25.1-4.49-2.29-2.75,1.23-4.3-2.75-2.64-4.62-.42-.11-.84-.24-1.26-.36-.39.16-.83.19-1.25.04,0,0,0,0,0,.01-.12-.05-.24-.11-.36-.16-.23,1.73-1.46.87-2.3.13-1.81-.75-3.12-2.1-4.25-3.67-1.28-1.89.24-4.55,2.59-3.56.82-.29,1.75.21,2.5.55,2.48,1.1,5.23,1.33,7.88,1.8,4.49.45,8.73,2.27,13.3,1.93,5.04.23,10.21.48,15.03,2.04,1.99.4,3.71,1.52,5.64,2.11,1.91.55,3.88.94,5.62,1.93,2.17,1.02,3.4,3.35,3.5,5.69.12,1.89.42,4.12-1.23,5.46-1.03.82-2.13,1.56-3.16,2.38-.63.22-1.14.66-1.66,1.1-.49.41-1,.8-1.43,1.28-.22.25-.42.52-.55.83-.12.27-.19.57-.26.86-1.25,1.38-2.63,2.63-3.9,2.63-.62,0-1.21-.3-1.75-1.03Z"/>
    <path class="cls-1" d="M47.32,84.88c-1.1-.22-1.82-1.04-2.05-2.12-.16-.73-.07-1.59.34-2.24-6.42-2.46-13.13-4.88-19.23-7.99-1.95-1.22-2.82-3.71-1.91-5.85.05-.94.67-1.91,1.64-2.09,1.91-.21,2.66,2.33,1.97,3.78,1.83,1.03,3.95,1.37,5.87,2.19,4.45,1.94,8.8,4.17,13.5,5.46,2.05.49,4.82.82,6.56,2.15,1.44.2,2.86.55,4.22,1.03,1.03.47,2.4.71,3.03,1.73.5.87.49,1.65-.68,1.88-.89.1-1.39-.48-2.15-.69-.39,2.24-2.26,2.63-4.22,2.29-2.08,1-4.67.79-6.89.45Z"/>
    <path class="cls-1" d="M44.21,68.59c-4.46-.94-8.3-2.23-12.57-3.52-2.79-.81-8.1-2.24-6.62-6.13.37-.7,1.2-.98,1.87-.47,1.22.59,2.5.97,3.83,1.2,3.23.59,6.17,2.02,9.34,2.78,2.45.77,5.2,1.04,7.15,2.87.92.72,1.89,1.4,2.85,1.98-1.9.65-3.77,1.81-5.85,1.29Z"/>
    <path class="cls-1" d="M76.32,79.52c-1.59-.32-1.91-2.09-1.95-3.46-.19-.65-.62-1.17-1.03-1.67,0,0,0,0,0,0-.8-.14-1.53-.52-2.2-.97-.99-.07-2.04-.46-2.49-1.39-1.01-.55-2.24-.72-3-1.63-.89-1.33.38-2.92,1.85-2.86,1.61-.29,3.17.2,4.69.64.81.04,1.61.02,2.39.26,1.5.47,2.44,1.94,2.85,3.39,1.33,2.15,2.8,7.61-1.11,7.69Z"/>
    <path class="cls-1" d="M69.38,91.67c.02-.07.03-.13.05-.2-.02.07-.03.13-.05.2,0,0,0,0,0,0Z"/>
    <path class="cls-1" d="M66.59,92.44c-.09-.08-.18-.16-.27-.26-.79-1.25-.63-2.88-.13-4.21.74-4,4.23-6.67,7.54-8.64.7-.39,1.43.08,1.68.77.34.87-.05,1.8-.83,2.26-.43.5-.82,1.04-1.17,1.61-.39.23-.75.53-1.11.84-.49.41-1,.8-1.43,1.28-.22.25-.42.52-.55.83-.12.28-.2.58-.26.87-.07.34-.12.69-.19,1.03-.11.59-.19,1.19-.28,1.78-.06.36-.15.72-.23,1.09,0,0,0,0,0,0,0,0,0,0,0,0,0,0,0,.02,0,.02-.02.08-.04.16-.06.23-.01.04-.03.07-.04.11-.06.03-.12.06-.18.09-.05.02-.1.04-.15.06-.26.07-.53.12-.79.18-.23.04-.45.09-.68.12-.06,0-.12,0-.18,0-.23-.02-.47-.03-.71-.05Z"/>
    <path class="cls-1" d="M67.3,92.49c-.41-.03-.84-.06-1.25-.11-.46-.1-.93-.16-1.39-.23-.46-.08-.92-.18-1.37-.29-.07-.03-.15-.05-.23-.09-.14-.07-.29-.14-.43-.22-1.42-2.04-2.36-4.74-.63-5.68.65-.24,1.27.19,1.54.77.96.85,1.73,1.96,2.78,2.68.84-.82.44-2.13,1.14-3.07.45-.72,1.41-1.01,2.15-.57.4.23.67.58.84.99-.04.07-.08.15-.11.23-.12.28-.2.58-.26.87-.07.34-.12.69-.19,1.03-.11.59-.19,1.19-.28,1.79-.07.36-.15.72-.23,1.08,0,0,0,0,0,0,0,0,0,0,0,0,0,0,0,.02,0,.02-.02.08-.04.16-.06.24-.01.04-.03.07-.04.11-.06.03-.12.06-.18.09-.05.02-.1.04-.15.06-.26.07-.53.12-.79.18.11-.02.21-.04.32-.06-.33.07-.66.14-1,.18h-.18Z"/>
    <path class="cls-1" d="M23.28,87.47c-2.34-.45-3.98-2.8-3.69-5.15-.03-1.2.9-3.15,2.3-2.15.73.68,1.19,2.1,2.46,1.72.39-.43.66-.96.97-1.44.73-1.22,2.53-1.41,3.46-.3,2.69,3.05-1.82,8.8-5.5,7.33Z"/>
    <path class="cls-1" d="M62.96,93.64c-1.58-.49-2.69-1.8-3.96-2.79-.8-.87-1.88-1.42-1.38-2.75.21-.56.74-.91,1.26-.82.95-.21,1.89-.09,2.82.17.9.14,1.74.47,2.55.89.79.47,1.7.3,2.57.36,1.23.05,1.91,1.27,1.92,2.4.05,2.81-3.71,3.38-5.77,2.54Z"/>
    <path class="cls-1" d="M65.48,91.85c-.33-1.36.26-2.97,1.69-3.37.47-2.15.64-5.26,3.24-5.85.58-.41,1.29-.55,1.75.14.48.69.36,1.79-.37,2.27-.59.5-.55,1.25-.52,1.96,0,2.13-.85,4.55-2.3,6.07-1.18,1.32-3.17.45-3.49-1.21Z"/>
    <path class="cls-1" d="M65.69,93.94c-1.14-.42-1.54-1.63-2-2.63-.49-.31-.7-.98-.63-1.55.08-.67.66-1.44,1.39-1.24,1.83-1.25,4.17.41,4.44,2.38.28,1.75-1.37,3.73-3.2,3.04Z"/>
    <path class="cls-1" d="M68.73,85.83c-.13-.85,1.14-.7,1.25-.02.07.32-.16.6-.48.6s-.68-.24-.77-.58Z"/>
    <path class="cls-1" d="M67.78,84.74c1.24-1.54,2.8-2.86,4.04-4.43.65-.88,1.32-1.72,2.1-2.48,1.57-2.05,5.18.02,4.22,2.4-1.06,2.15-3.22,3.49-4.89,5.14-1.12.73-1.97,2.12-3.35,2.3-1.42.08-2.93-1.57-2.13-2.93Z"/>
  </g>
  <g class="cls-3">
    <path class="cls-4" d="M81.59,16.88c2.04,6.06.3,12.7-.46,18.88-.98,5.45-2.62,10.79-5.07,15.77-2.39,4.68-5.62,8.83-8.69,13.07-.98,1.54-1.93,3.12-2.66,4.8,1.6.4,3.2.84,4.78,1.32.95.34,2.06.45,2.97.9.02,0,.04,0,.07,0,.18,0,.36-.02.55-.04.7-.07,1.63-.11,1.95.61.11.09.22.23.31.41.24.35.34.85.39,1.26,0,.45.14,1.3.14,2.09.37.77.43,1.69.25,2.55.04.38-.13.87-.43,1.09-.18.3-.45.57-.81.76-2.62,2.05-5.08,4.3-7.65,6.41.21.1.41.3.51.54.12.34.43.64-.09.67.19.48.43,1.51-.26,1.54.06.31.09.63.07.95-.37-.14-.73-.46-.98-.79-.2.23-.51.08-.59-.17.02.42-.11,1.08-.66,1.02-.7-.23-.5-1.19-.54-1.77v-.03c-.75.57-1.73,1.71-2.42.98-.99-.44-1.94-.96-2.94-1.38-2.64-.62-5.34-.96-7.98-1.56-6.57-1.39-13.01-3.41-19.6-4.64-1.98-.29-3.96-.58-5.94-.93-.05.07-.16.16-.34.27.2.2.44.38.61.6.11.13.11.33.04.48.14.2.25.4.3.54-.25.02-.62-.17-.88-.31.83,1.92-.15,2.67-.91.47-.22.38-.49,2.49-1.11,1.77-.2-.25-.1-.61-.03-.9.06-.44.08-.9.08-1.36-.2.23-.42.39-.7.3-.32-.15-.3-.58-.22-.88.18-.5.34-1.01.53-1.5-3.44-.73-6.81-1.75-9.96-3.37-.5-.26-1.14-.56-1.23-1.18-.02-.14,0-.27.04-.37-.12-.14-.22-.31-.29-.5-.34-.96-.08-2-.2-3,0-.05,0-.1,0-.15-.38-.12-.6-.45-.57-1.08.62-1.12,1.9-1.75,2.89-2.53,2.7-1.87,5.19-4.07,8.03-5.74-.23-6.96,3.02-12.58,6.33-19.48,2.11-4.86,4.47-9.65,5.66-14.84.92-3.93.88-7.95.88-11.95.12-1.2.32-2.45.6-3.58.5,1.15.96,2.33,1.16,3.57,2.24,13.45-6.1,25.08-10.51,37.16-.81,2.45-1.53,5.03-1.67,7.57.08.05.16.11.25.19.07.07.13.15.18.24,5.31,1.28,10.37,3.45,15.78,4.38,3.99.72,8.07.52,12.07,1.12,3.41.38,6.77.97,10.1,1.75,1.19-2.77,3-5.36,4.62-7.8,3.61-5.74,7.37-11.46,9.5-17.94,2.29-6.87,2.73-14.23,3.16-21.41,0-2.29.58-4.49.91-6.74.23.58.45,1.27.7,1.88ZM73.95,77.89s.09-.07.14-.11c-.29-1.3-.39-2.37-.38-3.22-.02,0-.03-.01-.04-.02-3.39,2.95-6.87,5.91-10.09,9.05.02.14.01.27-.02.4.06.74.33,1.91.08,2.72,2.96-3.1,9.13-7.45,10.31-8.83ZM71.61,73.71c-.22-.11-.42-.27-.59-.48-2.32-.7-4.67-1.36-7.04-1.96-.1.32-.2.65-.28.98-.16.77-.23,1.48-.29,2.18.18.33.32.68.39,1.02.3-.14.66-.17,1-.14.38.02.75.08,1.12.14-.33.14-.84.18-1.24.31-.32.07-.6.22-.85.4-.02.23-.1.45-.23.66.04-.02.07-.04.11-.06.87-.37,1.11.41.44.91-.8.42-1.72.81-2.64.77-.87-.25-1.94-1.05-1.3-2.04.13-.19.3-.32.48-.39-1.55-.32-3.15-.42-4.65-.97-.16-.06-.27-.21-.36-.34-.42-1.38,1.28-.53,1.95-.49,1.32.16,2.5.79,3.73,1.24-.02-.11,0-.21.03-.29-.02-.3-.02-.59-.01-.88h0c-.15-.54-.13-1.2.14-1.46.1-.68.26-1.36.46-2.02-3.66-.86-7.37-1.52-11.11-1.89-4.66-.31-9.37-.5-13.94-1.56-4.21-.82-8.17-2.48-12.18-3.95-.03.23-.13.49-.31.78-.05.05-.1.09-.15.14.01.3.03.61.05.92.46-.2,1.02-.52,1.29.12.95.51,1.69,1.21,2.53,1.86-.33.01-.79-.14-1.16-.19-.85-.11-1.7-.55-2.54-.26-.02,0-.03,0-.05,0,.03.69.03,1.38-.02,2.06-.07.65-.78.96-1.19.59-.12.11-.24.22-.36.34.77.03,1.61.28,2.25-.29.31-.27.75-.46.65-.91.56-.14.77.61.54,1.02-.44.7-1.41,1.08-2.21,1.04-.81.03-1.74.51-2.5.11-.78-.85.25-1.88,1.17-2.45-.2-.72-.37-1.42-.5-2.11-1.51,1.3-3.11,2.51-4.78,3.56-.45.23-1.55.93-2.73,1.52,1.93.72,3.8,1.54,5.76,2.03,5.77,1.35,11.77,1.14,17.56,2.36,5.22,1.06,10.32,2.63,15.46,3.99,2.57.72,4.98,1.93,7.61,2.39.03,0,.05.02.08.02,0,.04,0,.08,0,.12.14.02.28.07.42.16,3.11-3.1,6.82-5.55,9.98-8.59ZM61.6,77.43c.09,0,.18,0,.26,0-.06-.05-.11-.12-.14-.21-.08.03-.16.07-.25.1.03.05.08.09.13.12ZM62.24,87.21c-.46-.52-.48-1.37-.49-2.11-.15-.03-.3-.1-.44-.22-.17-.12-.32-.27-.47-.41-.07-.07-.14-.14-.21-.21-8.38-2.79-16.89-5.31-25.62-6.82-7.12-.99-14.47-1.61-21.05-4.71.28.89.44,1.82.5,2.3-.02.33-.11.6-.23.8,2.5.83,5.04,1.58,7.59,2.26,4.83,1.4,9.91,1.34,14.75,2.61,4.61,1.02,9.13,2.41,13.73,3.46,3.4.75,6.81,1.41,10.15,2.38,0,.02,0,.05,0,.07.61.14,1.26.39,1.8.61ZM24.62,80.97c-.1-.02-.2-.04-.3-.06.02.18.04.37.05.55.02,0,.04.02.07.03.02,0,.04.01.06.02-.06-.2,0-.4.12-.55Z"/>
    <path class="cls-4" d="M57.68,72.96c-1.37-.11-2.91-.38-4.34-.54-3.43-.45-6.89-.75-10.34-.58-3.55-.74-7.11-1.46-10.63-2.32.72.57,1.34,1.26,2.03,1.87.14.11.18.31.14.47-.19.62-1.08.21-1.56.3-1.54.03-3.1-.17-4.59-.26-.33,0-.51-.34-.51-.64,0-.29.19-.64.51-.64,1.64.15,3.27.46,4.91.61-.15-.14-.3-.3-.43-.42-.45-.4-.94-.77-1.44-1.1-.46-.21-.92-.81-.27-1.11,2.5.15,4.85,1.34,7.35,1.66,2.81.85,5.69.77,8.58.8,3.59.22,7.12,1.03,10.6,1.89Z"/>
    <path class="cls-4" d="M66.19,83.01c.25.22,0,.72-.33.62-.36-.21-1.08-.55-.85-1.06.34-.49.84.32,1.18.44Z"/>
    <path class="cls-4" d="M73.54,77.21c-.82,1.49-2.68,2.13-3.89,3.3-.71.5-1.25,1.19-1.94,1.62-.05,0-.12-.01-.15-.06-.08-.14-.04-.31.04-.45.59-.68,1.31-1.23,2-1.81,1.29-.86,2.39-2.31,3.96-2.61Z"/>
    <path class="cls-4" d="M55.8,77.28c.15.48-.71.32-1,.13-1.17-.48-2.44-.66-3.66-.98-.38-.08-.73-.44-.63-.86-2.96-.71-6.11-.43-9.04-.77,2.11-.14,9-1.74,9.93.58,1.24.43,2.52.72,3.72,1.24.31.11.58.32.68.65Z"/>
    <path class="cls-4" d="M48.87,81.79c2.3.84,4.71,1.78,6.93,2.71-4.15-.83-7.99-2.6-12.19-3.26-.3-.02-.62-.43-.34-.67.12-.1.29-.1.43-.05,1.74.39,3.48.73,5.18,1.27Z"/>
    <path class="cls-4" d="M18.2,74.68c3.95,1.52,8.02,2.66,12.29,2.43-1.36.22-2.92.39-4.35.34-3.38-.16-6.5-1.68-9.73-2.58-2.18-1.51,1.02-.45,1.79-.19Z"/>
  </g>
  <g class="cls-6">
    <path class="cls-5" d="M81.59,16.88c2.04,6.06.3,12.7-.46,18.88-.98,5.45-2.62,10.79-5.07,15.77-2.39,4.68-5.62,8.83-8.69,13.07-.98,1.54-1.93,3.12-2.66,4.8,1.6.4,3.2.84,4.78,1.32.95.34,2.06.45,2.97.9.02,0,.04,0,.07,0,.18,0,.36-.02.55-.04.7-.07,1.63-.11,1.95.61.11.09.22.23.31.41.24.35.34.85.39,1.26,0,.45.14,1.3.14,2.09.37.77.43,1.69.25,2.55.04.38-.13.87-.43,1.09-.18.3-.45.57-.81.76-2.62,2.05-5.08,4.3-7.65,6.41.21.1.41.3.51.54.12.34.43.64-.09.67.19.48.43,1.51-.26,1.54.06.31.09.63.07.95-.37-.14-.73-.46-.98-.79-.2.23-.51.08-.59-.17.02.42-.11,1.08-.66,1.02-.7-.23-.5-1.19-.54-1.77v-.03c-.75.57-1.73,1.71-2.42.98-.99-.44-1.94-.96-2.94-1.38-2.64-.62-5.34-.96-7.98-1.56-6.57-1.39-13.01-3.41-19.6-4.64-1.98-.29-3.96-.58-5.94-.93-.05.07-.16.16-.34.27.2.2.44.38.61.6.11.13.11.33.04.48.14.2.25.4.3.54-.25.02-.62-.17-.88-.31.83,1.92-.15,2.67-.91.47-.22.38-.49,2.49-1.11,1.77-.2-.25-.1-.61-.03-.9.06-.44.08-.9.08-1.36-.2.23-.42.39-.7.3-.32-.15-.3-.58-.22-.88.18-.5.34-1.01.53-1.5-3.44-.73-6.81-1.75-9.96-3.37-.5-.26-1.14-.56-1.23-1.18-.02-.14,0-.27.04-.37-.12-.14-.22-.31-.29-.5-.34-.96-.08-2-.2-3,0-.05,0-.1,0-.15-.38-.12-.6-.45-.57-1.08.62-1.12,1.9-1.75,2.89-2.53,2.7-1.87,5.19-4.07,8.03-5.74-.23-6.96,3.02-12.58,6.33-19.48,2.11-4.86,4.47-9.65,5.66-14.84.92-3.93.88-7.95.88-11.95.12-1.2.32-2.45.6-3.58.5,1.15.96,2.33,1.16,3.57,2.24,13.45-6.1,25.08-10.51,37.16-.81,2.45-1.53,5.03-1.67,7.57.08.05.16.11.25.19.07.07.13.15.18.24,5.31,1.28,10.37,3.45,15.78,4.38,3.99.72,8.07.52,12.07,1.12,3.41.38,6.77.97,10.1,1.75,1.19-2.77,3-5.36,4.62-7.8,3.61-5.74,7.37-11.46,9.5-17.94,2.29-6.87,2.73-14.23,3.16-21.41,0-2.29.58-4.49.91-6.74.23.58.45,1.27.7,1.88ZM73.95,77.89s.09-.07.14-.11c-.29-1.3-.39-2.37-.38-3.22-.02,0-.03-.01-.04-.02-3.39,2.95-6.87,5.91-10.09,9.05.02.14.01.27-.02.4.06.74.33,1.91.08,2.72,2.96-3.1,9.13-7.45,10.31-8.83ZM71.61,73.71c-.22-.11-.42-.27-.59-.48-2.32-.7-4.67-1.36-7.04-1.96-.1.32-.2.65-.28.98-.16.77-.23,1.48-.29,2.18.18.33.32.68.39,1.02.3-.14.66-.17,1-.14.38.02.75.08,1.12.14-.33.14-.84.18-1.24.31-.32.07-.6.22-.85.4-.02.23-.1.45-.23.66.04-.02.07-.04.11-.06.87-.37,1.11.41.44.91-.8.42-1.72.81-2.64.77-.87-.25-1.94-1.05-1.3-2.04.13-.19.3-.32.48-.39-1.55-.32-3.15-.42-4.65-.97-.16-.06-.27-.21-.36-.34-.42-1.38,1.28-.53,1.95-.49,1.32.16,2.5.79,3.73,1.24-.02-.11,0-.21.03-.29-.02-.3-.02-.59-.01-.88h0c-.15-.54-.13-1.2.14-1.46.1-.68.26-1.36.46-2.02-3.66-.86-7.37-1.52-11.11-1.89-4.66-.31-9.37-.5-13.94-1.56-4.21-.82-8.17-2.48-12.18-3.95-.03.23-.13.49-.31.78-.05.05-.1.09-.15.14.01.3.03.61.05.92.46-.2,1.02-.52,1.29.12.95.51,1.69,1.21,2.53,1.86-.33.01-.79-.14-1.16-.19-.85-.11-1.7-.55-2.54-.26-.02,0-.03,0-.05,0,.03.69.03,1.38-.02,2.06-.07.65-.78.96-1.19.59-.12.11-.24.22-.36.34.77.03,1.61.28,2.25-.29.31-.27.75-.46.65-.91.56-.14.77.61.54,1.02-.44.7-1.41,1.08-2.21,1.04-.81.03-1.74.51-2.5.11-.78-.85.25-1.88,1.17-2.45-.2-.72-.37-1.42-.5-2.11-1.51,1.3-3.11,2.51-4.78,3.56-.45.23-1.55.93-2.73,1.52,1.93.72,3.8,1.54,5.76,2.03,5.77,1.35,11.77,1.14,17.56,2.36,5.22,1.06,10.32,2.63,15.46,3.99,2.57.72,4.98,1.93,7.61,2.39.03,0,.05.02.08.02,0,.04,0,.08,0,.12.14.02.28.07.42.16,3.11-3.1,6.82-5.55,9.98-8.59ZM61.6,77.43c.09,0,.18,0,.26,0-.06-.05-.11-.12-.14-.21-.08.03-.16.07-.25.1.03.05.08.09.13.12ZM62.24,87.21c-.46-.52-.48-1.37-.49-2.11-.15-.03-.3-.1-.44-.22-.17-.12-.32-.27-.47-.41-.07-.07-.14-.14-.21-.21-8.38-2.79-16.89-5.31-25.62-6.82-7.12-.99-14.47-1.61-21.05-4.71.28.89.44,1.82.5,2.3-.02.33-.11.6-.23.8,2.5.83,5.04,1.58,7.59,2.26,4.83,1.4,9.91,1.34,14.75,2.61,4.61,1.02,9.13,2.41,13.73,3.46,3.4.75,6.81,1.41,10.15,2.38,0,.02,0,.05,0,.07.61.14,1.26.39,1.8.61ZM24.62,80.97c-.1-.02-.2-.04-.3-.06.02.18.04.37.05.55.02,0,.04.02.07.03.02,0,.04.01.06.02-.06-.2,0-.4.12-.55Z"/>
    <path class="cls-5" d="M57.68,72.96c-1.37-.11-2.91-.38-4.34-.54-3.43-.45-6.89-.75-10.34-.58-3.55-.74-7.11-1.46-10.63-2.32.72.57,1.34,1.26,2.03,1.87.14.11.18.31.14.47-.19.62-1.08.21-1.56.3-1.54.03-3.1-.17-4.59-.26-.33,0-.51-.34-.51-.64,0-.29.19-.64.51-.64,1.64.15,3.27.46,4.91.61-.15-.14-.3-.3-.43-.42-.45-.4-.94-.77-1.44-1.1-.46-.21-.92-.81-.27-1.11,2.5.15,4.85,1.34,7.35,1.66,2.81.85,5.69.77,8.58.8,3.59.22,7.12,1.03,10.6,1.89Z"/>
    <path class="cls-5" d="M18.2,74.68c3.95,1.52,8.02,2.66,12.29,2.43-1.36.22-2.92.39-4.35.34-3.38-.16-6.5-1.68-9.73-2.58-2.18-1.51,1.02-.45,1.79-.19Z"/>
    <path class="cls-5" d="M55.8,77.28c.15.48-.71.32-1,.13-1.17-.48-2.44-.66-3.66-.98-.38-.08-.73-.44-.63-.86-2.96-.71-6.11-.43-9.04-.77,2.11-.14,9-1.74,9.93.58,1.24.43,2.52.72,3.72,1.24.31.11.58.32.68.65Z"/>
    <path class="cls-5" d="M48.87,81.79c2.3.84,4.71,1.78,6.93,2.71-4.15-.83-7.99-2.6-12.19-3.26-.3-.02-.62-.43-.34-.67.12-.1.29-.1.43-.05,1.74.39,3.48.73,5.18,1.27Z"/>
    <path class="cls-5" d="M73.54,77.21c-.82,1.49-2.68,2.13-3.89,3.3-.71.5-1.25,1.19-1.94,1.62-.05,0-.12-.01-.15-.06-.08-.14-.04-.31.04-.45.59-.68,1.31-1.23,2-1.81,1.29-.86,2.39-2.31,3.96-2.61Z"/>
    <path class="cls-5" d="M66.19,83.01c.25.22,0,.72-.33.62-.36-.21-1.08-.55-.85-1.06.34-.49.84.32,1.18.44Z"/>
  </g>
</svg>