<?xml version="1.0" encoding="UTF-8"?>
<svg id="Layer_1" data-name="Layer 1" xmlns="http://www.w3.org/2000/svg" xmlns:xlink="http://www.w3.org/1999/xlink" viewBox="0 0 100 100">
  <defs>
    <style>
      .cls-1 {
        fill: #fff;
      }

      .cls-2 {
        fill: #a55340;
      }

      .cls-3 {
        fill: none;
      }

      .cls-4 {
        clip-path: url(#clippath-1);
      }

      .cls-5 {
        fill: #e29818;
      }

      .cls-6 {
        clip-path: url(#clippath-2);
      }

      .cls-7 {
        clip-path: url(#clippath);
      }
    </style>
    <clipPath id="clippath">
      <rect class="cls-3" x=".03" y="5.64" width="99.91" height="88.45"/>
    </clipPath>
    <clipPath id="clippath-1">
      <rect class="cls-3" x="3.6" y="10.38" width="92.45" height="78.94"/>
    </clipPath>
    <clipPath id="clippath-2">
      <rect class="cls-3" x="3.6" y="10.38" width="92.45" height="78.94"/>
    </clipPath>
  </defs>
  <g class="cls-7">
    <path class="cls-2" d="M58.48,20.2c-.36-.23-.76-.42-1.19-.54-1.3-1.45-2.21-3.28-3.61-4.64-.4-.36-.87-.64-1.41-.74-.66-.6-1.4-1.09-2.27-1.41-.08-.03-.16-.06-.24-.08,1.27-.08,2.4.58,4.34,2.31,1.55,1.62,2.99,3.35,4.38,5.1Z"/>
    <path class="cls-1" d="M99.65,70.12c0,.89.03,1.85-.08,2.78,0,2.26-.8,4.72-1.89,6.15-2.92,7.62-12.4,11.24-21.1,12.84-5.87,1.46-12,1.95-18,1.53-2.34.25-4.69.39-7.04.37-14.07-.3-28.73-.83-38.75-7.94h0c-3.74-2.08-6.69-5.43-8.77-9.18-.7-1.27-1.03-2.71-1.7-3.99-.46-.65-.85-1.39-.88-2.18-.53-1.53-.81-3.15-.9-4.8-.26-.63-.24-1.41-.02-2.11.13-3.44,1.01-6.95,2.2-10.06,1.06-2.82,3.15-5.04,4.9-7.44.95-1.49,1.88-2.98,3.05-4.31,2.86-3.74,5.59-7.71,8.66-11.09,1.09-1.01,2.19-2.01,3.29-2.99,3.13-4.57,11.5-10.81,14.42-13.23,2-1.48,3.94-3.38,6.17-4.58.2-.33.48-.6.81-.8,2.13-1.43,4.4-3.19,7.14-2.81,7.11,1.57,10.85,8.7,15.43,13.7,2.1,2.76,4.75,5,7.22,7.42,4.35,4.25,8.14,9.02,11.81,13.87.9,1.3,1.81,2.61,2.71,3.92.26.26.52.53.78.8,1.28,1.39,2.42,2.89,3.52,4.42.89,1.16,1.93,2.35,1.69,3.95,1.68,2.38,2.67,5.11,3.58,7.86,1.02,2.54,1.78,5.18,1.74,7.92ZM58.48,20.2c-.06-.07-.12-.14-.17-.22-.35-.44-.71-.88-1.06-1.32-.23-.27-.45-.55-.68-.82-.12-.14-.23-.28-.36-.42-.3-.35-.6-.7-.91-1.04-.13-.14-.26-.29-.39-.43-.26-.29-.53-.58-.81-.87-1.15-1.02-2.01-1.67-2.79-2.01-.16-.07-.3-.13-.46-.17-.37-.11-.73-.15-1.09-.12.08.02.17.05.24.08.87.31,1.61.81,2.27,1.41.53.1,1,.38,1.41.74,1.4,1.37,2.31,3.19,3.61,4.64.11.03.21.07.32.1.1.03.2.08.3.12.1.05.2.1.29.15.09.05.18.1.27.17h0ZM52.3,44.77c.24-.06.49-.07.73-.04-.14-1.09-.31-2.1-.48-3.08-.34-.5-.62-1.03-.82-1.59-.01.04-.03.07-.04.11.33,1.52.56,3.05.61,4.6ZM41.37,48.72c-.07-.29-.13-.58-.2-.87-.3.16-.62.29-.92.45.41.03.79.18,1.12.42ZM34.1,49.74c.3.92.59,1.83.87,2.75-.11-.78-.37-1.71-.51-2.63-.13-.04-.24-.08-.36-.13ZM31.35,46.61c-.18-.54-.3-1.13-.37-1.76-.18.18-.36.36-.53.54,0,.48-.02.97-.05,1.45.3-.15.63-.23.96-.23ZM24.57,36.21c-.06-.12-.11-.25-.16-.38-.27.05-.54.03-.83-.04-.8.83-1.59,1.66-2.39,2.49.03.07.06.13.08.2,1.02-1.21,2.15-2.03,3.3-2.27ZM18.32,44.26c.13-.45.28-.9.44-1.33-.46.6-.89,1.21-1.32,1.82.26-.2.55-.36.88-.5ZM15.09,51.73c.06-1.35.17-2.95.63-4.34-.66,1.03-1.31,2.05-1.98,3.07-.4.63-.77,1.28-1.11,1.94.46-.36,1-.52,1.66-.3.26-.15.52-.27.8-.36Z"/>
    <path class="cls-1" d="M14.49,60.56c-2.03-.44-2.52-2.95-2.02-4.7-.09-3.17,1.83-5.96,3.36-8.62,1.97-2.58,5.99-10.49,9.45-5.59,1.32-1.85,2.69-3.69,4.32-5.28.87-.95,2.1-1.44,2.72-2.59,1.28-1.67,3.53-5.49,5.76-2.95,1.25-2.89,3.61-7.67,7.31-4.85.53-.05,1.08.1,1.53.47.77.62,1.15,1.68,1.12,2.68,1.39,1.62.57,3.79-.03,5.56-1.18,2.94-1.31,5.95-1.05,9.07,1.21-2.47,3.08-12.46,6.35-11.72,1.03.19,1.72,1.14,1.95,2.11.7,3.12.04,6.35-.02,9.51-.22,2.54-.56,5.08-.75,7.62-.22,1.72.27,2.78,2,3.28-4.11,1.79-5.03-2.72-5.77-5.79-.71,1.75-1.1,3.75-2.33,5.23-2.19,2.23-4.8,1.54-5.56-1.51-.05.03-.09.06-.14.09-.12.07-.25.13-.38.17-.08.33-.16.66-.25.99-.29,1.05-1.07,2.09-2.19,2.16-1.95,2.54-4.92.13-4.62-2.53-.71.17-1.55.03-2.14-.29-.13-.07-.26-.15-.38-.24-.57.52-1.32.82-2.12.67-.09-.02-.18-.04-.27-.07-.86,1.61-1.27,4.05-3.4,4.37-1.04.14-1.97-.35-2.53-1.23-1.22,2.31-4.94,3.4-6.01.39-1.01,1.4-1.8,3.91-3.92,3.59Z"/>
  </g>
  <g class="cls-4">
    <path class="cls-2" d="M89.72,53.38c2.94,4.59,6.07,9.63,5.72,15.29-.1,1.67-.4,3.32-.91,4.88-.17.95-.38,1.89-.62,2.83-.32,1.44-1.54,5.47-3.32,6.3-.4.34-.87.6-1.39.77-9.61,4.27-20.11,5.55-30.54,5.55-.8,0-1.59,0-2.39-.02-2.75-.11-5.51-.07-8.27-.03-3.82.06-7.64.12-11.45-.23-7.91-1.34-16.87-1.44-23.52-6.38.06.18.12.36.18.54,0,0,0,0,0,0-.23-.32-.46-.63-.68-.94-1.43-1.31-2.26-3.15-3.4-4.65-.33-.26-.49-.69-.49-1.12-4.74-7.85-4.8-13.19,1.86-23.96,3.08-5.76,7.3-10.74,11.21-15.93,4.3-6.02,9.65-11.13,15.16-16.03,1.29-1.07,9.37-7.94,12.33-8.98h0c.78-.63,2.05.26,3.17,1.43,3.47,2.31,8.48,7.46,9.47,8.31,10.34,9.88,20.64,19.95,27.86,32.37ZM92.07,70.07c.69-2.88-.29-5.72-1.41-8.35-6.39-12.06-15.04-23.05-25.14-32.23-4.85-4.6-9.93-8.97-14.38-13.97-.49-.62-1.29-1.24-1.74-1.95-.9.89-2.12,1.76-2.54,2.34-4.76,4.21-9.55,8.41-13.95,12.99-9.12,9.93-18.04,20.62-23.66,32.96-1.15,3.28-.65,7,.46,10.19.4,1.23.8,2.47,1.2,3.71,1.17,1.46,2.3,2.97,3.88,4.01,1.7.99,3.5,1.73,5.36,2.32-1.55-2.22-2.05-5.2-2.74-7.77-1.2-5.3.65-10.63,3.88-14.84,4.3-6.41,9.42-12.18,14.93-17.59,3.6-3.48,7.03-7.16,11.14-10.06.42-.23,1.11-.82,1.77-1.19.11-.28.28-.49.48-.62.39-.67,1.25-.71,1.71-.14,2.77,1.14,8.98,7.85,10.07,8.98,5.47,5.35,10.7,10.98,15.44,16.99,2.68,3.51,5.64,6.95,7.17,11.16.54,1.27.79,2.58.8,3.9h0c.12.99.1,1.98-.12,2.99-.16,2.47-.75,4.92-1.42,7.29-.15.6-.34,1.18-.59,1.73.27-.1.54-.2.8-.31,1.8-.58,3.81-1.4,5.39-2.36,1.09-3.43,2.25-6.85,3.23-10.2ZM81.86,73.02c.04-.16.07-.32.1-.48-.28-1.84-.48-3.7-1.12-5.44-.05-.16-.1-.31-.15-.47-.38-.84-.74-1.68-1.07-2.53-1.39-1.66-2.62-3.45-3.96-5.12-2.32-2.85-4.56-5.76-6.86-8.61-.04-.04-.09-.09-.13-.13-5.34-5.64-11.17-10.73-16.44-16.44,0,1.24-.05,2.48-.13,3.71,0,1.03.02,2.05.03,3.08.07,4.94-.14,9.88-.55,14.8.13,1.02-.18,2.51-.08,3.17-.06,4.03.11,8.1.15,12.16.71,4.37,1.56,8.74,1.29,13.08.18.76.37,1.51.6,2.25,7.26.19,14.61.3,21.7-1.05.25-.03.5-.09.75-.15,1.39-.29,2.78-.63,4.15-1.05-.07-1.47.29-2.93.68-4.38.26-2.03.64-4.48,1.03-6.39ZM49.63,85.94s0-.01,0-.02c-.2-1.19-.33-2.39-.4-3.59t0,0c-.62-2.62-.57-5.44-.99-8.09-.6-7.02-.73-14.07-.36-21.1.34-6.37.03-12.8.74-19.15-.86.95-1.76,1.89-2.66,2.8-6.52,6.75-13.64,12.89-19.11,20.53-2.41,3.55-5.8,6.79-6.75,11.08-1.15,4.96,1.83,9.46,2.23,14.27,3.02.76,6.13,1.2,9.18,1.72,6.01.94,12.06,1.45,18.13,1.55Z"/>
  </g>
  <g class="cls-6">
    <path class="cls-5" d="M89.72,53.38c2.94,4.59,6.07,9.63,5.72,15.29-.09,1.67-.4,3.32-.91,4.88-.17.95-.38,1.89-.62,2.83-.32,1.44-1.54,5.46-3.32,6.3-.4.34-.87.6-1.39.77-9.61,4.27-20.11,5.55-30.54,5.55-.8,0-1.59,0-2.39-.02-2.75-.11-5.51-.07-8.27-.03-3.82.06-7.64.12-11.45-.23-7.91-1.34-16.87-1.45-23.52-6.38.06.18.12.36.18.54-.23-.32-.46-.63-.68-.94-1.43-1.31-2.26-3.14-3.39-4.65-.33-.26-.49-.69-.49-1.12-4.74-7.85-4.8-13.19,1.86-23.96,3.08-5.76,7.3-10.74,11.21-15.93,4.3-6.02,9.65-11.14,15.16-16.04,1.29-1.07,9.37-7.94,12.34-8.98h0c.78-.63,2.05.26,3.17,1.43,3.46,2.31,8.48,7.46,9.47,8.31,10.34,9.89,20.64,19.95,27.86,32.38ZM92.07,70.07c.69-2.88-.29-5.72-1.41-8.36-6.39-12.06-15.05-23.05-25.14-32.23-4.85-4.6-9.93-8.97-14.38-13.97-.49-.62-1.29-1.24-1.74-1.96-.9.89-2.12,1.77-2.54,2.34-4.76,4.21-9.55,8.41-13.95,12.99-9.12,9.93-18.04,20.62-23.66,32.96-1.14,3.28-.64,7,.46,10.19.41,1.23.8,2.47,1.2,3.71,1.17,1.46,2.3,2.97,3.88,4.02,1.7,1,3.5,1.73,5.36,2.32-1.55-2.21-2.05-5.2-2.74-7.77-1.2-5.3.65-10.62,3.88-14.84,4.3-6.41,9.42-12.18,14.93-17.59,3.59-3.48,7.03-7.16,11.14-10.05.42-.23,1.11-.82,1.77-1.19.11-.28.28-.49.48-.62.39-.67,1.25-.71,1.71-.14,2.77,1.14,8.98,7.84,10.07,8.98,5.47,5.36,10.7,10.98,15.44,17,2.68,3.52,5.64,6.95,7.17,11.16.54,1.27.79,2.59.79,3.9h0c.12.98.1,1.98-.12,2.99-.16,2.47-.75,4.92-1.43,7.3-.15.59-.34,1.18-.59,1.73.27-.1.54-.2.8-.31,1.8-.58,3.8-1.4,5.39-2.36,1.09-3.43,2.25-6.85,3.23-10.2ZM81.86,73.02c.04-.16.07-.32.1-.48-.28-1.84-.48-3.7-1.12-5.45-.05-.16-.1-.31-.15-.47-.38-.84-.74-1.68-1.07-2.53-1.39-1.66-2.62-3.45-3.96-5.12-2.31-2.85-4.55-5.76-6.86-8.62-.04-.04-.09-.09-.13-.13-5.34-5.64-11.17-10.73-16.44-16.45,0,1.24-.05,2.48-.13,3.71.01,1.03.02,2.05.04,3.08.07,4.94-.14,9.88-.55,14.8.13,1.02-.18,2.51-.08,3.17-.06,4.03.11,8.1.15,12.15.71,4.37,1.56,8.74,1.29,13.08.18.76.38,1.51.6,2.25,7.26.19,14.61.3,21.7-1.05.25-.04.5-.09.75-.15,1.39-.29,2.78-.63,4.15-1.05-.07-1.47.29-2.93.68-4.38.26-2.03.64-4.48,1.03-6.39ZM49.63,85.95s0-.02,0-.02c-.2-1.19-.33-2.39-.4-3.59t0-.01c-.62-2.61-.57-5.44-1-8.09-.6-7.02-.72-14.07-.36-21.1.34-6.37.03-12.8.74-19.14-.86.95-1.76,1.88-2.66,2.8-6.52,6.75-13.64,12.89-19.11,20.53-2.41,3.55-5.8,6.79-6.75,11.08-1.15,4.96,1.83,9.46,2.23,14.27,3.02.76,6.13,1.2,9.18,1.72,6.01.94,12.05,1.45,18.13,1.55Z"/>
  </g>
</svg>